<?xml version="1.0" encoding="UTF-8"?><svg version="1.1" width="24px" height="24px" viewBox="0 0 24.0 24.0" xmlns="http://www.w3.org/2000/svg" xmlns:xlink="http://www.w3.org/1999/xlink"><defs><clipPath id="i0"><path d="M12,0 C18.627417,0 24,5.372583 24,12 C24,18.627417 18.627417,24 12,24 C5.372583,24 0,18.627417 0,12 C0,5.372583 5.372583,0 12,0 Z"></path></clipPath><clipPath id="i1"><path d="M5.58615,0 C8.542875,0 11.17335,5.4399 11.17335,9.728175 C11.17335,11.809425 10.57305,13.5378 9.43575,14.72625 C8.4345,15.77355 7.0671,16.3503 5.58615,16.3503 C4.106325,16.3503 2.738925,15.77355 1.736625,14.72625 C0.600375,13.5378 0,11.809425 0,9.728175 C0,5.4399 2.630475,0 5.58615,0 Z"></path></clipPath></defs><g clip-path="url(#i0)"><polygon points="0,0 24,0 24,24 0,24 0,0" stroke="none" fill="#F79429" opacity="45.3030541%"></polygon></g><g transform="translate(6.850780000000057 3.154182999999998)"><g transform="translate(1.1250900000000001 0.9208124999999967)"><g clip-path="url(#i1)"><polygon points="0,0 11.17335,0 11.17335,16.3503 0,16.3503 0,0" stroke="none" fill="#F89529"></polygon></g></g><g transform="translate(2.070997499999999 7.248569999999998)"><path d="M6.213075,3.1065 C6.213075,1.3905 4.822575,0 3.106575,0 C1.3905,0 0,1.3905 0,3.1065 C0,4.822575 1.3905,6.213 3.106575,6.213 C4.822575,6.213 6.213075,4.822575 6.213075,3.1065 Z" stroke="#3B3B3A" stroke-width="0.818175" fill="none" stroke-miterlimit="10"></path></g><path d="M10.3551,9.319575 C10.3551,5.0304 7.751175,0 5.17755,0 C2.60385,0 0,5.0304 0,9.319575 C0,13.60875 2.60385,15.53265 5.17755,15.53265 C7.751175,15.53265 10.3551,13.60875 10.3551,9.319575 Z" stroke="#3B3B3A" stroke-width="0.818175" fill="none" stroke-miterlimit="10"></path></g></svg>