<?xml version="1.0" encoding="UTF-8"?><svg version="1.1" width="24px" height="24px" viewBox="0 0 24.0 24.0" xmlns="http://www.w3.org/2000/svg" xmlns:xlink="http://www.w3.org/1999/xlink"><defs><clipPath id="i0"><path d="M12,0 C18.627417,0 24,5.372583 24,12 C24,18.627417 18.627417,24 12,24 C5.372583,24 0,18.627417 0,12 C0,5.372583 5.372583,0 12,0 Z"></path></clipPath><clipPath id="i1"><path d="M4.4427,0 L4.4427,3.57645 C4.96845,3.1275 5.831625,2.742975 7.249125,2.68155 L7.249125,1.03605 L8.0673,1.03605 L8.0673,3.107025 C8.0622,4.28115 7.7022,5.1852 6.9975,5.796825 C6.1824,6.503475 5.115675,6.622125 4.491825,6.622125 L4.4427,6.622125 L4.4427,7.71855 C5.0175,7.22865 5.995275,6.814425 7.658175,6.814425 L8.0673,6.814425 L8.0673,7.22355 C8.0673,8.4099 7.7073,9.323175 6.9975,9.93885 C6.1824,10.645575 5.115675,10.76415 4.491825,10.76415 L4.4427,10.76415 L4.4427,11.860575 C5.0175,11.370675 5.995275,10.95645 7.658175,10.95645 L8.0673,10.95645 L8.0673,11.365575 C8.0673,12.551925 7.7073,13.4652 6.9975,14.080875 C6.1824,14.7876 5.115675,14.90625 4.491825,14.90625 L4.4427,14.90625 L4.4427,16.568175 L3.6246,16.568175 L3.6246,14.90625 L3.575475,14.90625 C2.951625,14.90625 1.8849,14.7876 1.0698,14.080875 C0.36,13.4652 0,12.551925 0,11.365575 L0,10.95645 L0.409125,10.95645 C2.072025,10.95645 3.0498,11.370675 3.6246,11.860575 L3.6246,10.76415 L3.575475,10.76415 C2.951625,10.76415 1.8849,10.645575 1.0698,9.93885 C0.36,9.323175 0,8.4099 0,7.22355 L0,6.814425 L0.409125,6.814425 C2.072025,6.814425 3.0498,7.22865 3.6246,7.71855 L3.6246,6.622125 L3.575475,6.622125 C2.951625,6.622125 1.8849,6.503475 1.0698,5.796825 C0.365175,5.1852 0.0051,4.28115 0,3.107025 L0,1.03605 L0.818175,1.03605 L0.818175,2.68155 C2.23575,2.742975 3.09885,3.1275 3.6246,3.57645 L3.6246,0 L4.4427,0 Z"></path></clipPath></defs><g clip-path="url(#i0)"><polygon points="0,0 24,0 24,24 0,24 0,0" stroke="none" fill="#BB974A" opacity="45.3030541%"></polygon></g><g transform="translate(8.115639412912138 2.841042999999999)"><g transform="translate(1.162237500000174 1.3292174999999986)"><g clip-path="url(#i1)"><polygon points="0,0 8.0673,0 8.0673,16.568175 0,16.568175 0,0" stroke="none" fill="#BB9649"></polygon></g></g><g transform="translate(3.624315000000024 0.0)"><path d="M0.0625,16.568175 L0.0625,0" stroke="#3B3B3A" stroke-width="0.818175" fill="none" stroke-miterlimit="10"></path></g><g transform="translate(0.0 1.0355174999999972)"><path d="M0.0625,0 L0.0625,2.07105" stroke="#3B3B3A" stroke-width="0.818175" fill="none" stroke-miterlimit="10"></path></g><g transform="translate(0.037514999999984866 11.364899999999988)"><path d="M3.6243,3.1065 C3.6243,3.1065 0,3.624225 0,0 C3.6243,0 3.6243,2.070975 3.6243,2.070975" stroke="#3B3B3A" stroke-width="0.818175" fill="none" stroke-miterlimit="10"></path></g><g transform="translate(0.037514999999984866 7.222830000000002)"><path d="M3.6243,3.1065 C3.6243,3.1065 0,3.624225 0,0 C3.6243,0 3.6243,2.070975 3.6243,2.070975" stroke="#3B3B3A" stroke-width="0.818175" fill="none" stroke-miterlimit="10"></path></g><g transform="translate(0.037514999999984866 3.080804999999998)"><path d="M3.6243,3.1065 C3.6243,3.1065 0,3.624225 0,0 C3.6243,0 3.6243,2.070975 3.6243,2.070975" stroke="#3B3B3A" stroke-width="0.818175" fill="none" stroke-miterlimit="10"></path></g><g transform="translate(7.248592500000086 1.0355174999999972)"><path d="M0.0625,0 L0.0625,2.07105" stroke="#3B3B3A" stroke-width="0.818175" fill="none" stroke-miterlimit="10"></path></g><g transform="translate(3.6618149999999328 11.364899999999988)"><path d="M0,3.1065 C0,3.1065 3.6243,3.624225 3.6243,0 C0,0 0,2.070975 0,2.070975" stroke="#3B3B3A" stroke-width="0.818175" fill="none" stroke-miterlimit="10"></path></g><g transform="translate(3.6618149999999328 7.222830000000002)"><path d="M0,3.1065 C0,3.1065 3.6243,3.624225 3.6243,0 C0,0 0,2.070975 0,2.070975" stroke="#3B3B3A" stroke-width="0.818175" fill="none" stroke-miterlimit="10"></path></g><g transform="translate(3.6618149999999328 3.080804999999998)"><path d="M0,3.1065 C0,3.1065 3.6243,3.624225 3.6243,0 C0,0 0,2.070975 0,2.070975" stroke="#3B3B3A" stroke-width="0.818175" fill="none" stroke-miterlimit="10"></path></g></g></svg>