<?xml version="1.0" encoding="UTF-8"?>
<svg version="1.1" xmlns="http://www.w3.org/2000/svg" width="960" height="949">
<path d="M0 0 C0.87527344 0.77601562 1.75054688 1.55203125 2.65234375 2.3515625 C5.11488835 4.55345862 7.55899582 6.77426548 10 9 C10.93199219 9.83917969 11.86398437 10.67835937 12.82421875 11.54296875 C22.44179931 20.23319071 31.94992309 29.17074266 40.34375 39.06640625 C42.25985577 41.30336935 44.25512856 43.45803578 46.25 45.625 C51.28320365 51.20990389 55.87667279 57.08866119 60.46826172 63.03564453 C62.05449992 65.06989262 63.66685422 67.08103121 65.28515625 69.08984375 C74.70660412 80.8619603 82.98720684 93.23459172 91 106 C91.44182617 106.7022168 91.88365234 107.40443359 92.33886719 108.12792969 C129.4775352 167.55592194 152.43876109 235.01692668 160.25 304.5625 C160.33335602 305.30209961 160.41671204 306.04169922 160.50259399 306.80371094 C162.36529711 323.59543509 163.2125402 340.3575995 163.1875 357.25 C163.18659363 358.40353973 163.18659363 358.40353973 163.18566895 359.5803833 C162.98452496 455.19491453 134.05495348 548.7114391 55 660 C54.14261334 661.03073806 53.28587495 662.0620156 52.4296875 663.09375 C42.28500234 675.27103123 31.43499623 686.65591667 20.25 697.875 C19.75431519 698.37336365 19.25863037 698.87172729 18.7479248 699.38519287 C13.01298003 705.14362401 7.20285329 710.74425276 1 716 C-0.00963963 716.87700008 -1.01878793 717.75456625 -2.02734375 718.6328125 C-27.08889496 740.09491945 -54.50006305 759.19537129 -83.62158203 774.72851562 C-85.27212805 775.61088512 -86.9186811 776.50074861 -88.56201172 777.39648438 C-173.10935691 823.47686389 -274.5285106 841.74596773 -370 829 C-370.65881165 828.91278687 -371.31762329 828.82557373 -371.99639893 828.73571777 C-461.86025071 816.75602259 -545.487499 780.11700903 -615 722 C-615.52142578 721.56494141 -616.04285156 721.12988281 -616.58007812 720.68164062 C-632.28170494 707.53824817 -647.95026223 693.61362139 -661.265625 678.015625 C-663.25912581 675.69885379 -665.31554388 673.44580016 -667.375 671.1875 C-672.10177902 665.93552331 -676.61452155 660.53920174 -681 655 C-681.70334473 654.11344727 -681.70334473 654.11344727 -682.42089844 653.20898438 C-703.70942719 626.22973564 -721.99402722 596.98259928 -736.99365234 566.06591797 C-738.03173317 563.93485539 -739.08804363 561.81339508 -740.14453125 559.69140625 C-746.65057614 546.46842592 -751.96963232 532.84405381 -757 519 C-757.38687988 517.93813477 -757.77375977 516.87626953 -758.17236328 515.78222656 C-769.1005698 485.39966692 -776.26658404 454.00660842 -780.71289062 422.05786133 C-780.98175773 420.13075177 -781.26006787 418.20496631 -781.5390625 416.27929688 C-786.93660791 377.40411865 -786.76669517 334.81684382 -781 296 C-780.84727631 294.96791412 -780.84727631 294.96791412 -780.69146729 293.91497803 C-766.54826289 199.13139329 -726.7770763 109.68665109 -643.16333008 19.97802734 C-641.42955057 18.24204044 -639.70398462 16.4981489 -637.97851562 14.75390625 C-632.07993923 8.8258679 -626.09755985 3.24678714 -619.53710938 -1.95922852 C-617.0825597 -3.93359156 -614.74303883 -5.9895808 -612.41015625 -8.10546875 C-607.94571014 -12.1138533 -603.25445075 -15.73982918 -598.4375 -19.3125 C-597.56617432 -19.96130127 -596.69484863 -20.61010254 -595.79711914 -21.27856445 C-577.15541196 -35.08654253 -557.77610861 -47.75974962 -537.33203125 -58.74365234 C-534.94306351 -60.0306737 -532.56562898 -61.33761005 -530.1875 -62.64453125 C-473.97404931 -93.1781315 -410.4708786 -109.60487448 -347 -115 C-346.19723633 -115.07202637 -345.39447266 -115.14405273 -344.56738281 -115.21826172 C-256.31128999 -122.87416301 -165.53055257 -101.84312786 0 0 Z " fill="#00A650" transform="translate(788,116)"/>
<path d="M0 0 C0.87527344 0.77601562 1.75054688 1.55203125 2.65234375 2.3515625 C5.11488835 4.55345862 7.55899582 6.77426548 10 9 C10.93199219 9.83917969 11.86398437 10.67835937 12.82421875 11.54296875 C22.44179931 20.23319071 31.94992309 29.17074266 40.34375 39.06640625 C42.25985577 41.30336935 44.25512856 43.45803578 46.25 45.625 C51.28320365 51.20990389 55.87667279 57.08866119 60.46826172 63.03564453 C62.05449992 65.06989262 63.66685422 67.08103121 65.28515625 69.08984375 C74.70660412 80.8619603 82.98720684 93.23459172 91 106 C91.44182617 106.7022168 91.88365234 107.40443359 92.33886719 108.12792969 C129.4775352 167.55592194 152.43876109 235.01692668 160.25 304.5625 C160.33335602 305.30209961 160.41671204 306.04169922 160.50259399 306.80371094 C162.36529711 323.59543509 163.2125402 340.3575995 163.1875 357.25 C163.18659363 358.40353973 163.18659363 358.40353973 163.18566895 359.5803833 C162.98452496 455.19491453 134.05495348 548.7114391 55 660 C54.14261334 661.03073806 53.28587495 662.0620156 52.4296875 663.09375 C42.28500234 675.27103123 31.43499623 686.65591667 20.25 697.875 C19.75431519 698.37336365 19.25863037 698.87172729 18.7479248 699.38519287 C13.01298003 705.14362401 7.20285329 710.74425276 1 716 C-0.00963963 716.87700008 -1.01878793 717.75456625 -2.02734375 718.6328125 C-27.08889496 740.09491945 -54.50006305 759.19537129 -83.62158203 774.72851562 C-85.27212805 775.61088512 -86.9186811 776.50074861 -88.56201172 777.39648438 C-173.10935691 823.47686389 -274.5285106 841.74596773 -370 829 C-370.65881165 828.91278687 -371.31762329 828.82557373 -371.99639893 828.73571777 C-461.86025071 816.75602259 -545.487499 780.11700903 -615 722 C-615.52142578 721.56494141 -616.04285156 721.12988281 -616.58007812 720.68164062 C-632.28170494 707.53824817 -647.95026223 693.61362139 -661.265625 678.015625 C-663.25912581 675.69885379 -665.31554388 673.44580016 -667.375 671.1875 C-672.10177902 665.93552331 -676.61452155 660.53920174 -681 655 C-681.70334473 654.11344727 -681.70334473 654.11344727 -682.42089844 653.20898438 C-703.70942719 626.22973564 -721.99402722 596.98259928 -736.99365234 566.06591797 C-738.03173317 563.93485539 -739.08804363 561.81339508 -740.14453125 559.69140625 C-746.65057614 546.46842592 -751.96963232 532.84405381 -757 519 C-757.38687988 517.93813477 -757.77375977 516.87626953 -758.17236328 515.78222656 C-769.1005698 485.39966692 -776.26658404 454.00660842 -780.71289062 422.05786133 C-780.98175773 420.13075177 -781.26006787 418.20496631 -781.5390625 416.27929688 C-786.93660791 377.40411865 -786.76669517 334.81684382 -781 296 C-780.84727631 294.96791412 -780.84727631 294.96791412 -780.69146729 293.91497803 C-766.54826289 199.13139329 -726.7770763 109.68665109 -643.16333008 19.97802734 C-641.42955057 18.24204044 -639.70398462 16.4981489 -637.97851562 14.75390625 C-632.07993923 8.8258679 -626.09755985 3.24678714 -619.53710938 -1.95922852 C-617.0825597 -3.93359156 -614.74303883 -5.9895808 -612.41015625 -8.10546875 C-607.94571014 -12.1138533 -603.25445075 -15.73982918 -598.4375 -19.3125 C-597.56617432 -19.96130127 -596.69484863 -20.61010254 -595.79711914 -21.27856445 C-577.15541196 -35.08654253 -557.77610861 -47.75974962 -537.33203125 -58.74365234 C-534.94306351 -60.0306737 -532.56562898 -61.33761005 -530.1875 -62.64453125 C-473.97404931 -93.1781315 -410.4708786 -109.60487448 -347 -115 C-346.19723633 -115.07202637 -345.39447266 -115.14405273 -344.56738281 -115.21826172 C-256.31128999 -122.87416301 -165.53055257 -101.84312786 0 0 Z M-368 -71 C-368.98919434 -70.85546387 -369.97838867 -70.71092773 -370.99755859 -70.56201172 C-436.89155366 -60.92289337 -500.22699805 -37.14353899 -555 1 C-555.58152832 1.40283203 -556.16305664 1.80566406 -556.76220703 2.22070312 C-570.83906223 12.00588146 -584.12816153 22.6841408 -597 34 C-598.35544922 35.18529297 -598.35544922 35.18529297 -599.73828125 36.39453125 C-606.41390813 42.37457906 -612.79016301 48.66276113 -619.14993286 54.97470093 C-620.15758155 55.97430971 -621.16670601 56.97243355 -622.17745972 57.96890259 C-628.92234701 64.62852377 -635.08315867 71.58540436 -641 79 C-641.92334818 80.08985359 -642.85296 81.17448326 -643.79296875 82.25 C-656.20704409 96.50694786 -667.03301171 111.95528974 -677 128 C-677.56895996 128.91048096 -677.56895996 128.91048096 -678.14941406 129.83935547 C-705.88597524 174.4255721 -724.40254909 222.65061378 -735 274 C-735.29740709 275.37516675 -735.59546171 276.75019384 -735.89453125 278.125 C-737.79757059 287.40613304 -738.93988442 296.793783 -740.125 306.1875 C-740.21162903 306.87145844 -740.29825806 307.55541687 -740.38751221 308.26010132 C-742.40314671 324.29972828 -743.20284916 340.09227692 -743.1875 356.25 C-743.18756042 357.22466217 -743.18762085 358.19932434 -743.18768311 359.20352173 C-743.17441537 374.23540593 -742.67215989 389.05047918 -741 404 C-740.84120226 405.5819067 -740.68360232 407.16393422 -740.52734375 408.74609375 C-739.64944861 417.25163292 -738.21927614 425.58340497 -736.4296875 433.94677734 C-735.96325338 436.17559037 -735.52596319 438.40883526 -735.09375 440.64453125 C-734.2669306 444.91976145 -733.40581843 449.18697087 -732.52392578 453.45117188 C-732.18991712 455.07607888 -731.8621046 456.70228054 -731.54248047 458.33007812 C-725.59597066 488.2743152 -713.85461383 517.41146759 -701 545 C-700.56091309 545.94456055 -700.12182617 546.88912109 -699.66943359 547.86230469 C-683.8213693 581.56185616 -662.27853917 614.31572545 -637.03515625 641.78515625 C-635.21532831 643.76565997 -633.44433669 645.77626277 -631.6875 647.8125 C-622.7427836 658.07077615 -613.54964619 668.16647259 -603.2265625 677.0546875 C-600.65085585 679.30504173 -598.1406591 681.62025908 -595.625 683.9375 C-590.57545822 688.52674342 -585.41095375 692.84455128 -580 697 C-579.3076123 697.53254395 -578.61522461 698.06508789 -577.90185547 698.61376953 C-533.62242176 732.55918245 -483.53941204 760.13205648 -429.33203125 774.37353516 C-427.08405149 774.97742084 -424.85473013 775.62515853 -422.625 776.29296875 C-405.01702402 781.52145958 -386.8873985 784.50660264 -368.75 787.25 C-367.68080322 787.41314697 -366.61160645 787.57629395 -365.51000977 787.74438477 C-269.77238319 801.68402059 -167.94158132 778.08139155 -66 715 C-64.95730957 714.27393555 -64.95730957 714.27393555 -63.89355469 713.53320312 C-49.69242095 703.59804737 -36.1277209 692.9039699 -23.37109375 681.16015625 C-22.03477558 679.94271977 -20.68979823 678.73417063 -19.31713867 677.55786133 C-13.41567373 672.4951001 -7.92211692 667.07060564 -2.4375 661.5625 C-1.53064453 660.65951172 -0.62378906 659.75652344 0.31054688 658.82617188 C5.41667684 653.71263635 10.31805789 648.503282 15 643 C15.845625 642.03578125 16.69125 641.0715625 17.5625 640.078125 C72.66910613 576.14033199 106.10973065 497.18856936 118 414 C118.24991699 412.36756348 118.24991699 412.36756348 118.50488281 410.70214844 C121.18917595 392.7901882 121.31121563 374.8908352 121.375 356.8125 C121.38294586 355.63269562 121.39089172 354.45289124 121.39907837 353.23733521 C121.48674942 336.27821791 120.31182126 319.79649223 118 303 C117.78822498 301.40263415 117.57676801 299.80522609 117.36572266 298.20776367 C116.82510107 294.19480103 116.23501443 290.19056147 115.625 286.1875 C115.46726105 285.1517131 115.46726105 285.1517131 115.30633545 284.09500122 C113.48364354 272.22683376 111.18177497 260.58316547 108 249 C107.75024414 248.07525879 107.50048828 247.15051758 107.24316406 246.19775391 C100.74703786 222.35609609 92.18421962 199.49802311 82 177 C81.34879408 175.53132282 80.69774093 174.06257788 80.046875 172.59375 C62.41624878 133.41612189 36.75745979 97.25875823 7.62109375 65.83984375 C5.19497394 63.21124599 2.8120955 60.55007156 0.4375 57.875 C-5.96451111 50.75276264 -12.67875435 43.98493901 -19.9609375 37.76171875 C-22.2269223 35.80394261 -24.42143494 33.77771052 -26.625 31.75 C-32.82560294 26.16378607 -39.37829543 21.07194392 -46 16 C-46.64275879 15.50564453 -47.28551758 15.01128906 -47.94775391 14.50195312 C-91.12680172 -18.62578832 -139.84037608 -42.63946699 -192 -58 C-193.03608398 -58.30534668 -194.07216797 -58.61069336 -195.13964844 -58.92529297 C-214.80522757 -64.60774124 -234.75752146 -68.15545364 -255 -71 C-256.27810547 -71.18079102 -257.55621094 -71.36158203 -258.87304688 -71.54785156 C-294.4400403 -76.30335334 -332.53686421 -76.58000978 -368 -71 Z " fill="#00A650" transform="translate(788,116)"/>
<path d="M0 0 C1.17029755 0.00215515 2.34059509 0.0043103 3.5463562 0.00653076 C22.33589322 0.06194437 40.75137215 0.67814417 59.375 3.3125 C60.08277588 3.41195923 60.79055176 3.51141846 61.51977539 3.6138916 C103.28979882 9.53119757 143.8789137 20.93784854 182.375 38.3125 C183.25575195 38.70614746 184.13650391 39.09979492 185.04394531 39.50537109 C212.9088344 52.05226867 239.56363671 67.85051248 263.51123047 86.84570312 C265.25331629 88.21673425 267.01238549 89.55961937 268.78515625 90.890625 C288.00377954 105.33348396 306.78647908 121.87133442 322.46484375 140.12109375 C324.70143818 142.6870027 327.00624067 145.1840643 329.3125 147.6875 C333.90200356 152.73732802 338.21579687 157.90416326 342.375 163.3125 C343.1498877 164.31120117 343.1498877 164.31120117 343.94042969 165.33007812 C359.12619678 184.95817237 372.40726185 205.58289442 384.375 227.3125 C384.97320557 228.38129395 384.97320557 228.38129395 385.58349609 229.47167969 C400.76726621 256.63311094 412.21117152 286.31718848 420.375 316.3125 C420.79410645 317.81973633 420.79410645 317.81973633 421.22167969 319.35742188 C426.26816865 337.68327601 429.65092922 356.0271237 432.05831909 374.86212158 C432.28517005 376.6174238 432.51879935 378.37185518 432.75686646 380.12567139 C435.03618985 397.02851521 435.90267044 413.63881388 435.8125 430.6875 C435.80979095 431.90007477 435.80708191 433.11264954 435.80429077 434.36196899 C435.73500867 454.92796456 434.52928091 474.99730814 431.375 495.3125 C431.17489885 496.63473063 430.97502921 497.95699632 430.77539062 499.27929688 C429.4863507 507.66014221 428.02317169 515.99495218 426.375 524.3125 C426.19388672 525.2288623 426.01277344 526.14522461 425.82617188 527.08935547 C414.07924713 584.66445801 387.3901739 641.39332834 352.375 688.3125 C351.77292725 689.12074219 351.77292725 689.12074219 351.15869141 689.9453125 C344.87998988 698.34012293 338.22118431 706.37642854 331.375 714.3125 C330.73691406 715.05242188 330.09882812 715.79234375 329.44140625 716.5546875 C327.76376477 718.48416892 326.07118726 720.39930352 324.375 722.3125 C323.73111328 723.04049805 323.08722656 723.76849609 322.42382812 724.51855469 C316.95622746 730.65153793 311.31194637 736.56810019 305.5 742.375 C304.62303467 743.25188477 303.74606934 744.12876953 302.8425293 745.03222656 C297.64935377 750.17970022 292.42957705 755.0447699 286.65234375 759.53125 C284.41285561 761.28289081 282.33910935 763.1353065 280.25 765.0625 C241.04507167 800.17346236 191.93217894 825.25110498 142.48706055 842.22338867 C139.67063384 843.20903859 136.88857422 844.25911371 134.1015625 845.32421875 C126.70537445 848.02299993 119.07160698 849.86426118 111.4375 851.75 C110.6464386 851.94603821 109.8553772 852.14207642 109.04034424 852.34405518 C72.70822359 861.30287257 37.44947147 864.58198072 0.125 864.5625 C-1.77962006 864.56160873 -1.77962006 864.56160873 -3.72271729 864.56069946 C-22.92393939 864.52638439 -41.40279407 863.58228502 -60.375 860.625 C-61.65674606 860.42667068 -61.65674606 860.42667068 -62.96438599 860.22433472 C-77.7001873 857.92849045 -92.19894798 855.13693643 -106.625 851.3125 C-107.60855469 851.05388184 -108.59210938 850.79526367 -109.60546875 850.52880859 C-155.8132545 838.18408152 -200.38441795 817.66974431 -239.625 790.3125 C-240.2118457 789.90435059 -240.79869141 789.49620117 -241.40332031 789.07568359 C-258.09904146 777.41597425 -273.84338352 764.78614758 -288.77734375 750.94140625 C-291.45140006 748.47276441 -294.15659914 746.04458428 -296.875 743.625 C-303.22320211 737.91669667 -309.16643909 731.96670559 -314.7265625 725.48828125 C-316.89245005 723.00597802 -319.13376957 720.60194855 -321.375 718.1875 C-326.67180626 712.37706404 -331.50613348 706.26480889 -336.29443359 700.03271484 C-337.53157136 698.43328866 -338.79034315 696.85066052 -340.05078125 695.26953125 C-351.45933146 680.83612813 -361.46159158 665.25409283 -370.625 649.3125 C-371.00543457 648.65846191 -371.38586914 648.00442383 -371.77783203 647.33056641 C-397.9734808 602.14387517 -415.69660968 552.06648961 -423.25537109 500.39599609 C-423.6055401 498.12813063 -423.6055401 498.12813063 -424.625 495.3125 C-425.3344615 490.53108722 -425.84617386 485.73035067 -426.35009766 480.92333984 C-426.53083365 479.20682939 -426.717828 477.49096429 -426.91162109 475.77587891 C-430.14430655 446.54998744 -430.6072587 415.47001173 -426.625 386.3125 C-426.37508301 384.44924072 -426.37508301 384.44924072 -426.12011719 382.54833984 C-423.730783 364.97130571 -420.81354731 347.56019443 -416.625 330.3125 C-416.40763184 329.39952148 -416.19026367 328.48654297 -415.96630859 327.54589844 C-409.89363239 302.25996169 -401.31318393 278.00608931 -390.625 254.3125 C-390.15191406 253.26320313 -389.67882812 252.21390625 -389.19140625 251.1328125 C-375.03482211 220.05738389 -356.94264825 190.98573988 -335.625 164.3125 C-334.83867187 163.32507813 -334.05234375 162.33765625 -333.2421875 161.3203125 C-331.06392662 158.6267641 -328.84888108 155.96850325 -326.625 153.3125 C-326.21049591 152.81428741 -325.79599182 152.31607483 -325.368927 151.80276489 C-318.08136282 143.06370743 -310.43495432 134.80455199 -302.36108398 126.7878418 C-300.55278392 124.99034195 -298.75554023 123.18227684 -296.95898438 121.37304688 C-290.93543093 115.34249636 -284.83142825 109.64153613 -278.14428711 104.33764648 C-275.69672975 102.37016046 -273.36484296 100.32015448 -271.0390625 98.2109375 C-266.55205186 94.18239529 -261.8386316 90.53191205 -257 86.9375 C-256.124646 86.28539551 -255.24929199 85.63329102 -254.34741211 84.96142578 C-247.58235723 79.95517389 -240.73432395 75.13284611 -233.64208984 70.60205078 C-232.22716573 69.69747209 -230.81637013 68.78641848 -229.40869141 67.87060547 C-174.50173554 32.22485963 -111.80306214 10.41321429 -46.90869141 2.70922852 C-44.53348931 2.42226172 -42.16099723 2.1125582 -39.79052734 1.78881836 C-26.53814821 0.05345679 -13.35008325 -0.04421066 0 0 Z M-68.625 28.3125 C-69.43354431 28.47230347 -70.24208862 28.63210693 -71.07513428 28.79675293 C-129.70787752 40.53715373 -186.70186213 63.1456121 -234.89746094 99.02929688 C-236.75886663 100.41193513 -238.63297372 101.77626669 -240.5078125 103.140625 C-249.96975496 110.07533679 -258.88205565 117.49637846 -267.625 125.3125 C-268.57117188 126.14652344 -269.51734375 126.98054688 -270.4921875 127.83984375 C-277.30702924 133.95003471 -283.81387575 140.36930353 -290.3125 146.8125 C-291.19180176 147.67875 -292.07110352 148.545 -292.97705078 149.4375 C-298.21393632 154.6674936 -303.03109661 160.08020957 -307.6574707 165.85693359 C-309.22093919 167.80821366 -310.80684426 169.71680901 -312.453125 171.59765625 C-354.86167958 220.23069222 -383.88716381 282.47919146 -397.02099609 345.41845703 C-397.5860055 348.12566053 -398.17482525 350.82653854 -398.76953125 353.52734375 C-400.68698348 362.42523307 -402.14540042 371.34818039 -403.3125 380.375 C-403.43197998 381.28330566 -403.55145996 382.19161133 -403.67456055 383.12744141 C-409.30220107 429.57483223 -405.91808614 476.64862928 -396.625 522.3125 C-396.43744141 523.24255859 -396.24988281 524.17261719 -396.05664062 525.13085938 C-381.55321207 594.7584302 -344.1920318 659.24161303 -296.625 711.3125 C-295.74585938 712.29605469 -294.86671875 713.27960937 -293.9609375 714.29296875 C-283.58823896 725.82135019 -272.37878624 736.56421006 -260.23828125 746.22265625 C-257.45998966 748.44445894 -254.76629009 750.75077797 -252.0625 753.0625 C-238.45802943 764.38787112 -223.74205324 774.1403202 -208.625 783.3125 C-207.87702148 783.76834473 -207.12904297 784.22418945 -206.35839844 784.69384766 C-154.18487424 816.2821317 -94.50182839 836.23394894 -33.625 841.3125 C-32.63322754 841.39790039 -31.64145508 841.48330078 -30.61962891 841.57128906 C-19.04320011 842.4609251 -7.48069509 842.55466594 4.125 842.5625 C5.16513245 842.56350708 6.20526489 842.56451416 7.2769165 842.56555176 C23.52051076 842.55494054 39.30349739 841.82881127 55.375 839.3125 C56.45346191 839.15201172 57.53192383 838.99152344 58.64306641 838.82617188 C65.00655896 837.87875363 71.35472575 836.86251489 77.6953125 835.77246094 C80.03480163 835.37089411 82.37612158 834.98423618 84.71875 834.6015625 C96.14930379 832.6267717 107.23785476 829.5193964 118.375 826.3125 C119.05965332 826.11962402 119.74430664 825.92674805 120.44970703 825.72802734 C177.76805061 809.49057872 232.19830762 778.84848141 275.96875 738.5078125 C277.97101476 736.68107095 280.00391702 734.91120026 282.05859375 733.14453125 C286.89111024 728.92579278 291.41390911 724.42025213 295.9375 719.875 C296.74896484 719.06740234 297.56042969 718.25980469 298.39648438 717.42773438 C303.26434621 712.55201481 307.90248616 707.55164923 312.375 702.3125 C313.220625 701.34828125 314.06625 700.3840625 314.9375 699.390625 C334.50538879 676.68685659 351.15182407 651.67144243 365.375 625.3125 C365.86033203 624.4157959 366.34566406 623.5190918 366.84570312 622.59521484 C376.19839521 605.11282764 383.45728182 586.86088911 390.375 568.3125 C390.82061279 567.11898926 391.26622559 565.92547852 391.7253418 564.69580078 C414.25329858 503.06878022 419.31474388 431.74610722 408.375 367.3125 C408.17181152 366.06662109 407.96862305 364.82074219 407.75927734 363.53710938 C405.89630691 352.25116142 403.93607201 340.99267473 400.5234375 330.05859375 C399.56611735 326.93590661 398.69269197 323.81516391 397.8515625 320.66015625 C394.15095818 306.84556677 389.86358743 293.52015344 384.375 280.3125 C383.97829102 279.3544043 383.58158203 278.39630859 383.17285156 277.40917969 C367.9536447 241.00823729 348.52134767 206.79133719 323.375 176.3125 C322.68277344 175.44753906 321.99054687 174.58257812 321.27734375 173.69140625 C316.4222498 167.65464923 311.33815571 161.89983706 306.0703125 156.2265625 C303.597608 153.55317473 301.16873619 150.84713167 298.75 148.125 C292.68482004 141.37870358 286.33999969 135.0118907 279.44921875 129.109375 C277.17342282 127.1378757 274.96577333 125.10115605 272.75 123.0625 C266.54548842 117.47938108 260.01138427 112.36483875 253.375 107.3125 C252.65634766 106.76400391 251.93769531 106.21550781 251.19726562 105.65039062 C239.64549126 96.87500838 227.80622786 88.78925299 215.375 81.3125 C214.57964844 80.83103516 213.78429687 80.34957031 212.96484375 79.85351562 C169.38479619 53.65652074 120.43585639 35.16440974 70.05078125 27.890625 C66.375 27.3125 66.375 27.3125 63.375 26.3125 C43.75333296 23.07258662 23.95554286 22.74419211 4.125 22.8125 C2.66506961 22.81496755 1.20513919 22.81741895 -0.25479126 22.81985474 C-23.32342122 22.88036285 -45.93757972 23.82447971 -68.625 28.3125 Z " fill="#FBFDFC" transform="translate(473.625,41.6875)"/>
<path d="M0 0 C0.33 0.99 0.66 1.98 1 3 C1.7425 3.061875 2.485 3.12375 3.25 3.1875 C7.06877972 4.31577583 7.89368345 5.60271525 10 9 C18.72792635 26.25048972 18.65613889 48.37049301 19.1875 67.25 C19.26232566 69.45708011 19.33860115 71.6641115 19.41625977 73.87109375 C19.7444355 83.42824348 20.00935409 92.98677788 20.234375 102.546875 C18.6334891 174.44044465 18.6334891 174.44044465 46.13671875 237.0703125 C53.14723361 242.75966072 59.73306374 245.36820383 68.625 246.1640625 C69.85899536 246.28281235 69.85899536 246.28281235 71.11791992 246.40396118 C80.73574281 247.25770734 90.34975454 247.39538761 100 247.375 C100.93244537 247.37478851 101.86489075 247.37457703 102.82559204 247.37435913 C124.1033307 247.32643988 144.94679115 245.63045534 165 238 C166.06992187 237.5978125 167.13984375 237.195625 168.2421875 236.78125 C183.07968912 231.37637483 183.07968912 231.37637483 194 221 C193.23171875 220.76796875 192.4634375 220.5359375 191.671875 220.296875 C187.74762285 218.91086254 184.00663288 217.27154325 180.20996094 215.57275391 C156.72812444 205.07913875 128.15585578 193.15353597 102.08984375 200.76953125 C87.73988709 206.48411576 73.47990292 215.74956207 64 228 C63.67 227.34 63.34 226.68 63 226 C64.01666601 223.12097284 65.10629138 220.36223194 66.3125 217.5625 C66.85293945 216.29889648 66.85293945 216.29889648 67.40429688 215.00976562 C78.54624005 189.44213792 93.10495686 164.55995119 119.58984375 152.85546875 C133.41007968 149.38853671 149.7572467 151.20364972 163 156 C164.19367188 156.38929688 165.38734375 156.77859375 166.6171875 157.1796875 C183.54346035 162.89559337 199.37217952 171.82652876 214.8125 180.6875 C247.40313308 199.3788198 277.85226551 204.60277128 315 205 C313.40631326 209.64839236 310.9037579 213.39356159 308.16796875 217.42578125 C307.45753166 218.48541328 307.45753166 218.48541328 306.73274231 219.56645203 C305.22201459 221.81809635 303.70505736 224.06545438 302.1875 226.3125 C300.68183574 228.54960431 299.17751554 230.7876003 297.6743927 233.02641296 C296.74114244 234.41561253 295.80626631 235.80372185 294.86943054 237.19050598 C294.43580704 237.83444809 294.00218353 238.4783902 293.55541992 239.1418457 C293.12703323 239.76852646 292.69864655 240.39520721 292.25727844 241.0408783 C290.95163139 243.010558 290.95163139 243.010558 289.83195496 245.2424469 C288.68835156 247.3786056 287.62426782 249.20056969 286 251 C282.97208068 251.73301391 281.32635742 251.89325598 278.33984375 251.67578125 C277.60163895 251.65607773 276.86343414 251.63637421 276.1028595 251.61607361 C274.5276793 251.57124306 272.95291273 251.50907081 271.37902832 251.43103027 C267.28987704 251.2325119 263.19846576 251.1706403 259.10546875 251.09765625 C258.30573639 251.08048553 257.50600403 251.06331482 256.68203735 251.04562378 C250.61604195 250.93931049 244.74528706 251.25854578 238.75 252.25 C238.0705835 252.35997314 237.39116699 252.46994629 236.69116211 252.58325195 C234.44354751 252.99494777 232.22675623 253.48659354 230 254 C228.86030762 254.25668457 227.72061523 254.51336914 226.54638672 254.77783203 C215.9643491 257.2437042 205.83469857 260.68592389 195.625 264.375 C192.51407674 265.48994242 189.40178363 266.60102519 186.2890625 267.7109375 C185.52457794 267.983685 184.76009338 268.2564325 183.97244263 268.53744507 C160.23173306 276.97892692 160.23173306 276.97892692 148.875 279.625 C147.19918595 280.02981214 145.52340516 280.43476203 143.84765625 280.83984375 C143.03699707 281.03304199 142.22633789 281.22624023 141.39111328 281.42529297 C138.37730475 282.14966557 135.3724064 282.90696334 132.36767578 283.66796875 C129.24790199 284.45662147 126.12372535 285.22715656 123 286 C122.19949219 286.20496094 121.39898438 286.40992188 120.57421875 286.62109375 C118.39058363 287.15158138 116.21018809 287.59352863 114 288 C113.01902344 288.185625 112.03804687 288.37125 111.02734375 288.5625 C102.02743342 289.97271446 93.03628257 290.23460648 83.94094849 290.29754639 C82.54220559 290.30737339 81.14348591 290.3217621 79.74484253 290.34112549 C60.8259987 290.56989434 44.95803095 286.01919426 30.46484375 273.44140625 C10.65877812 253.82367088 6.1095038 224.45361575 3 198 C2.84023682 196.69192383 2.84023682 196.69192383 2.67724609 195.35742188 C-1.40400837 161.14347688 -1.45901523 126.40091364 -2 92 C-2.1451001 92.81227051 -2.2902002 93.62454102 -2.43969727 94.46142578 C-7.1891138 120.86351927 -12.61866015 147.0181853 -20.33105469 172.74023438 C-20.95477435 174.84722315 -21.54984345 176.95955543 -22.1328125 179.078125 C-31.04095263 211.11286527 -42.20408486 241.34860339 -65 266 C-65.76054687 266.83144531 -66.52109375 267.66289063 -67.3046875 268.51953125 C-93.16944343 295.56857087 -131.58219151 311.43227006 -168 317 C-168.7336377 317.11569336 -169.46727539 317.23138672 -170.22314453 317.35058594 C-191.82385374 320.60106105 -214.41382607 320.04490111 -236 317 C-236 316.34 -236 315.68 -236 315 C-235.36908447 314.83781982 -234.73816895 314.67563965 -234.08813477 314.50854492 C-226.2529016 312.43906052 -218.59735105 309.9530956 -210.9375 307.3125 C-210.30171021 307.09346008 -209.66592041 306.87442017 -209.01086426 306.64874268 C-199.11221209 303.22457719 -189.47739596 299.46013849 -180.02099609 294.95458984 C-177.95886894 293.98057231 -175.8828479 293.04383265 -173.80078125 292.11328125 C-135.2972633 274.73833584 -97.9025861 247.54165387 -72 214 C-71.57750977 213.45923828 -71.15501953 212.91847656 -70.71972656 212.36132812 C-58.48300426 196.6117995 -48.9064522 179.2827436 -41 161 C-40.66935547 160.25202148 -40.33871094 159.50404297 -39.99804688 158.73339844 C-31.2674489 138.53846654 -27.59177252 116.41057911 -23 95 C-22.70609057 93.6363504 -22.41200211 92.27273937 -22.11767578 90.90917969 C-21.15852947 86.45830288 -20.20392404 82.00651984 -19.25952148 77.55249023 C-17.24102839 68.04542312 -15.14801786 58.5556226 -13.02615356 49.07116699 C-12.64262119 47.35522297 -12.26029745 45.6390082 -11.87936401 43.92248535 C-9.86220833 34.84026418 -7.74817018 25.79068204 -5.41015625 16.78515625 C-5.11594032 15.63895058 -5.11594032 15.63895058 -4.81578064 14.46958923 C-3.50578823 9.50912427 -1.86855966 4.77873905 0 0 Z " fill="#FDFEFD" transform="translate(526,287)"/>
<path d="M0 0 C2.06607401 2.06607401 2.531407 3.09434322 3.4453125 5.7890625 C3.8475 6.94269287 3.8475 6.94269287 4.2578125 8.11962891 C4.54398438 8.94640137 4.83015625 9.77317383 5.125 10.625 C10.81021184 26.48517519 17.65249753 40.25481472 30 52 C28.94075633 55.44254194 27.69926527 58.64589683 26.125 61.875 C24.21239735 66.10851373 22.95271384 70.44507851 21.8125 74.9375 C21.64572754 75.58122559 21.47895508 76.22495117 21.30712891 76.88818359 C15.44017359 100.98912954 19.18047377 127.58331497 21.52490234 151.99853516 C23.14975714 168.98650001 24.59252345 185.99282349 26 203 C26.06378845 203.76358826 26.1275769 204.52717651 26.19329834 205.31390381 C27.75968331 224.18998934 28.21588297 243.003864 28.3125 261.9375 C28.32212769 263.01246735 28.33175537 264.08743469 28.3416748 265.19497681 C28.36549392 268.28515193 28.36769612 271.37459392 28.36328125 274.46484375 C28.37239029 275.38020905 28.38149933 276.29557434 28.3908844 277.23867798 C28.24216539 298.47506852 13.25792318 317.72088189 -0.7109375 332.5546875 C-2.66970234 334.64715642 -4.49397916 336.78731701 -6.3125 339 C-17.90432053 352.20928386 -33.72598209 362.56436565 -50 369 C-50.91265625 369.36738281 -51.8253125 369.73476563 -52.765625 370.11328125 C-63.08779287 374.07780103 -72.65129307 375.3447905 -83.6875 375.25 C-84.83653809 375.24250732 -85.98557617 375.23501465 -87.16943359 375.22729492 C-113.5467308 374.89408842 -138.14660685 367.70633038 -157.23828125 348.78125 C-171.10873519 333.94430492 -176.5601894 315.57552398 -176.18359375 295.52734375 C-175.2361521 277.32436904 -169.59496721 261.82429911 -161 246 C-160.18402344 244.46085937 -160.18402344 244.46085937 -159.3515625 242.890625 C-146.92523364 220.46261682 -146.92523364 220.46261682 -140 217 C-141.69633995 222.2346185 -143.51055462 227.3974225 -145.49975586 232.52758789 C-151.34113782 247.77709799 -155.41352035 262.05710377 -155.5625 278.5 C-155.58461548 280.0924353 -155.58461548 280.0924353 -155.60717773 281.71704102 C-155.46703317 292.46453441 -152.83424709 303.23554575 -145 311 C-142.15113671 313.30205651 -139.1780156 315.18547233 -136 317 C-134.89205078 317.64582031 -134.89205078 317.64582031 -133.76171875 318.3046875 C-117.63450281 327.0323573 -99.81370582 329.3725476 -81.72363281 329.31567383 C-79.6329325 329.312512 -77.54365242 329.33610269 -75.453125 329.36132812 C-62.20790824 329.42494551 -49.49740987 327.39726411 -37 322.875 C-35.75234863 322.42930664 -35.75234863 322.42930664 -34.47949219 321.97460938 C-23.06118972 317.72816928 -7.61186709 311.38954633 -1.48828125 300.25 C5.85030652 283.76446186 5.20848299 265.92736609 5.1875 248.25 C5.18656342 247.23413818 5.18562683 246.21827637 5.18466187 245.17163086 C5.1785328 242.10915371 5.1653025 239.04681078 5.1484375 235.984375 C5.1446257 235.05691467 5.1408139 234.12945435 5.1368866 233.17388916 C5.06178625 223.91527453 4.52183863 214.74153051 3.41552734 205.54931641 C2.86940787 200.88451913 2.3848243 196.2139124 1.89453125 191.54296875 C-0.14843027 172.24994936 -2.33904125 153.02825251 -5.52929688 133.88671875 C-6.01004784 130.93837881 -6.45555504 127.98665914 -6.890625 125.03125 C-8.84220424 111.81144929 -11.07554712 98.65162203 -13.4375 85.5 C-13.58748444 84.66411346 -13.73746887 83.82822693 -13.89199829 82.9670105 C-15.39751769 74.59795364 -16.9354054 66.23790091 -18.59765625 57.8984375 C-18.83621338 56.69767578 -19.07477051 55.49691406 -19.32055664 54.25976562 C-19.7597787 52.07170431 -20.20759943 49.88534373 -20.66577148 47.70117188 C-20.85856689 46.74533203 -21.0513623 45.78949219 -21.25 44.8046875 C-21.42015625 43.98983887 -21.5903125 43.17499023 -21.765625 42.33544922 C-22.24102631 37.59827329 -20.8559533 34.34803578 -18.33984375 30.41015625 C-17.52519653 29.11887817 -17.52519653 29.11887817 -16.6940918 27.80151367 C-16.1144165 26.89763916 -15.53474121 25.99376465 -14.9375 25.0625 C-13.75331588 23.18608881 -12.5710275 21.30847991 -11.390625 19.4296875 C-10.81248047 18.51026367 -10.23433594 17.59083984 -9.63867188 16.64355469 C-6.25898606 11.19134403 -3.11807787 5.60500403 0 0 Z " fill="#FCFEFD" transform="translate(306,235)"/>
<path d="M0 0 C5.84979715 0.55529989 10.58873502 2.86040009 15.8125 5.375 C16.73522705 5.81763184 17.6579541 6.26026367 18.60864258 6.71630859 C35.58812343 15.0547988 50.19834912 26.12879749 64 39 C64.75152344 39.69738281 65.50304687 40.39476562 66.27734375 41.11328125 C88.14936519 62.13963578 102.55243209 91.30895104 108 121 C108.20496094 122.11246094 108.40992188 123.22492188 108.62109375 124.37109375 C110.9630212 139.63400025 111.79401713 156.77819466 109 172 C107.15950947 169.2392642 106.33832112 167.27982152 105.37109375 164.16015625 C105.06308838 163.18941162 104.75508301 162.21866699 104.43774414 161.21850586 C103.94262329 159.65628296 103.94262329 159.65628296 103.4375 158.0625 C94.89227876 131.86829939 83.00672143 102.36806984 57.2578125 89.01171875 C49.40753307 85.11778347 41.34222779 81.96274804 33.125 78.9375 C21.25909546 74.53576978 9.6645621 69.3291242 3.72265625 57.4453125 C0.83798107 50.52619836 -0.18460893 44.09573533 -0.5625 36.625 C-0.6042334 35.81224609 -0.6459668 34.99949219 -0.68896484 34.16210938 C-1.00683266 27.27540574 -1.10705661 20.39352297 -1.125 13.5 C-1.12959229 12.50307129 -1.13418457 11.50614258 -1.13891602 10.47900391 C-1.13690186 9.54749512 -1.1348877 8.61598633 -1.1328125 7.65625 C-1.13168457 6.82931641 -1.13055664 6.00238281 -1.12939453 5.15039062 C-1 3 -1 3 0 0 Z " fill="#FBFDFC" transform="translate(341,319)"/>
<path d="M0 0 C14.52 0 29.04 0 44 0 C44 1.98 44 3.96 44 6 C42.88625 6.2475 41.7725 6.495 40.625 6.75 C37.0412383 7.59117344 37.0412383 7.59117344 35.79931641 9.69824219 C34.80430111 12.56354587 34.6751269 15.04568532 34.5859375 18.078125 C34.55032715 19.12387695 34.5147168 20.16962891 34.47802734 21.24707031 C34.44402832 22.56803711 34.4100293 23.88900391 34.375 25.25 C34.189375 31.56125 34.189375 31.56125 34 38 C43.57 38 53.14 38 63 38 C62.896875 33.813125 62.79375 29.62625 62.6875 25.3125 C62.66260498 24.00063721 62.63770996 22.68877441 62.61206055 21.3371582 C62.57894775 20.29390381 62.54583496 19.25064941 62.51171875 18.17578125 C62.48553467 17.11270752 62.45935059 16.04963379 62.43237305 14.9543457 C61.94154069 11.60055557 61.04253244 9.69037623 59 7 C55.92438754 5.64019119 55.92438754 5.64019119 53 5 C53 3.35 53 1.7 53 0 C67.52 0 82.04 0 97 0 C97 1.65 97 3.3 97 5 C94.03 5.66 91.06 6.32 88 7 C87.10211004 10.84507779 86.86827332 14.41856197 86.85473633 18.36328125 C86.84835648 19.62809326 86.84197662 20.89290527 86.83540344 22.19604492 C86.83387485 23.56819622 86.83276085 24.94034804 86.83203125 26.3125 C86.82881543 27.72827182 86.82545111 29.14404332 86.82194519 30.55981445 C86.81596931 33.5219805 86.81410379 36.48411742 86.81469727 39.44628906 C86.814799 43.23584062 86.8011285 47.02520529 86.78392506 50.81471252 C86.77279211 53.73670302 86.77077843 56.65864843 86.77130699 59.58065796 C86.77012954 60.97765753 86.76572093 62.37465837 86.75797462 63.77163696 C86.74814567 65.72663954 86.75232453 67.68169725 86.75708008 69.63671875 C86.75565506 70.74748779 86.75423004 71.85825684 86.75276184 73.00268555 C87.00681779 76.08265337 87.60212673 78.25349105 89 81 C90.91313095 82.22698662 90.91313095 82.22698662 93.125 82.8125 C93.84945312 83.04582031 94.57390625 83.27914062 95.3203125 83.51953125 C95.87460937 83.67808594 96.42890625 83.83664062 97 84 C97 85.65 97 87.3 97 89 C82.15 89 67.3 89 52 89 C52 87.02 52 85.04 52 83 C54.01822917 82.64192708 56.03645833 82.28385417 58.0546875 81.92578125 C60.19373044 81.14815078 60.19373044 81.14815078 61.09570312 78.8828125 C62.16420079 75.4765435 62.32294604 72.51794687 62.4140625 68.94921875 C62.43342865 68.29041214 62.4527948 67.63160553 62.4727478 66.95283508 C62.53215941 64.86451857 62.57877291 62.77614576 62.625 60.6875 C62.66321532 59.26495095 62.70226909 57.84242416 62.7421875 56.41992188 C62.83939621 52.94673552 62.9192642 49.47376403 63 46 C53.43 46 43.86 46 34 46 C34.07425836 50.16358966 34.15730432 54.32513005 34.26245117 58.48779297 C34.29556291 59.9017449 34.32363716 61.31582464 34.34643555 62.72998047 C34.38023775 64.77105823 34.43255964 66.81097928 34.48828125 68.8515625 C34.51446533 70.07697754 34.54064941 71.30239258 34.56762695 72.56494141 C35.042428 76.3370762 35.95617651 78.80302789 38 82 C41.08961458 82.97474816 41.08961458 82.97474816 44 83 C44 84.98 44 86.96 44 89 C29.81 89 15.62 89 1 89 C1 87.02 1 85.04 1 83 C2.670625 82.5978125 2.670625 82.5978125 4.375 82.1875 C8.21840951 81.34190981 8.21840951 81.34190981 10 78 C10.29835795 75.06220225 10.29835795 75.06220225 10.24291992 71.68017578 C10.24599655 70.3751712 10.24907318 69.07016663 10.25224304 67.72561646 C10.24534343 66.29884669 10.23807632 64.87207866 10.23046875 63.4453125 C10.22927626 61.98184245 10.22882393 60.51837163 10.2290802 59.05490112 C10.22751584 55.98658459 10.21923186 52.91838481 10.20581055 49.85009766 C10.18885083 45.92377122 10.18499545 41.99757345 10.18575573 38.07121468 C10.18548325 35.04799174 10.17998907 32.02479673 10.17275429 29.0015831 C10.16957918 27.55435268 10.16760292 26.10711911 10.16686058 24.65988541 C10.16468304 22.63278308 10.15512593 20.60569278 10.14526367 18.57861328 C10.14145187 17.42628204 10.13764008 16.27395081 10.13371277 15.08670044 C10.01187251 12.27407159 9.64281066 9.73511709 9 7 C4.545 6.01 4.545 6.01 0 5 C0 3.35 0 1.7 0 0 Z " fill="#FDFEFD" transform="translate(184,637)"/>
<path d="M0 0 C2.60047512 7.0517071 5.20039811 14.10361758 7.79968262 21.15576363 C9.24262849 25.07057655 10.68594388 28.98525291 12.12965393 32.89978409 C12.83098948 34.80186214 13.53184415 36.70411691 14.23266602 38.60638428 C15.1593657 41.12139444 16.08849822 43.63548737 17.01928711 46.14898682 C19.16261501 51.94965174 21.27646425 57.75585787 23.296875 63.60058594 C23.65056152 64.61200653 24.00424805 65.62342712 24.36865234 66.66549683 C25.0165741 68.52565865 25.65324151 70.38979849 26.27587891 72.25857544 C28.02769699 77.25957738 29.74014791 80.59024997 34 84 C36.67790896 84.87238858 36.67790896 84.87238858 39 85 C39 86.98 39 88.96 39 91 C24.81 91 10.62 91 -4 91 C-4 89.02 -4 87.04 -4 85 C0.455 84.505 0.455 84.505 5 84 C4.37590455 81.95805665 3.75068171 79.91645785 3.125 77.875 C2.60292969 76.16957031 2.60292969 76.16957031 2.0703125 74.4296875 C1.08554806 71.27412845 0.04533793 68.13601379 -1 65 C-8.59 64.67 -16.18 64.34 -24 64 C-24.66 67.63 -25.32 71.26 -26 75 C-26.33 75.66 -26.66 76.32 -27 77 C-27.04022391 79.3329866 -27.04320247 81.66706666 -27 84 C-24.36 84.33 -21.72 84.66 -19 85 C-19 86.98 -19 88.96 -19 91 C-29.56 91 -40.12 91 -51 91 C-51 89.02 -51 87.04 -51 85 C-49.948125 84.835 -48.89625 84.67 -47.8125 84.5 C-43.58092527 83.27054101 -42.40278079 81.05518249 -40.24520874 77.38375854 C-38.05005888 73.1814854 -36.37547113 68.81139838 -34.70703125 64.37890625 C-34.3190889 63.3687999 -33.93114655 62.35869354 -33.53144836 61.31797791 C-32.70826094 59.17216981 -31.88871484 57.02496172 -31.0725708 54.87646484 C-29.80554631 51.54421192 -28.52644131 48.21683822 -27.24365234 44.890625 C-23.94611069 36.33443928 -20.65826708 27.77488487 -17.43821716 19.18919373 C-16.34648434 16.28795345 -15.23354741 13.3948492 -14.125 10.5 C-13.7638208 9.50685791 -13.4026416 8.51371582 -13.03051758 7.49047852 C-12.6930249 6.61705811 -12.35553223 5.7436377 -12.0078125 4.84375 C-11.73598145 4.11349609 -11.46415039 3.38324219 -11.18408203 2.63085938 C-10 1 -10 1 -7.68701172 0.25976562 C-5.10312413 0.00996948 -2.59360895 -0.01805619 0 0 Z " fill="#FAFDFB" transform="translate(374,635)"/>
<path d="M0 0 C0.4218457 1.19560547 0.84369141 2.39121094 1.27832031 3.62304688 C11.48443629 32.57016679 11.48443629 32.57016679 21.99743652 61.40673828 C22.49497998 62.74933893 22.98990012 64.09291496 23.48205566 65.4375 C24.16242333 67.29328201 24.85438735 69.14480017 25.546875 70.99609375 C25.92682617 72.01888428 26.30677734 73.0416748 26.69824219 74.09545898 C28.16899662 77.37707291 29.80921023 80.14637039 32 83 C35.61416517 84.43917432 35.61416517 84.43917432 39 85 C39 86.98 39 88.96 39 91 C24.81 91 10.62 91 -4 91 C-4 89.02 -4 87.04 -4 85 C-0.04 84.01 -0.04 84.01 4 83 C3.731875 81.72125 3.46375 80.4425 3.1875 79.125 C3.03667969 78.40570312 2.88585937 77.68640625 2.73046875 76.9453125 C1.64947682 72.58666056 0.29039327 68.30131091 -1 64 C-8.59 64 -16.18 64 -24 64 C-26.52490199 73.40211381 -26.52490199 73.40211381 -28 83 C-26.50256881 84.49743119 -25.01175761 84.33202693 -22.9375 84.5625 C-21.638125 84.706875 -20.33875 84.85125 -19 85 C-19 86.98 -19 88.96 -19 91 C-29.56 91 -40.12 91 -51 91 C-51 89.02 -51 87.04 -51 85 C-49.39125 84.690625 -49.39125 84.690625 -47.75 84.375 C-43.32988831 82.75429238 -42.0757721 81.00035619 -40 77 C-38.20734022 72.91171664 -36.62231937 68.75271492 -35.04296875 64.578125 C-34.57691727 63.36413025 -34.11086578 62.1501355 -33.63069153 60.89935303 C-32.39229507 57.67341483 -31.16266828 54.44420496 -29.93499756 51.21417236 C-28.7084149 47.99112538 -27.47412821 44.77103473 -26.24023438 41.55078125 C-24.34836243 36.61093549 -22.45906251 31.67011627 -20.57177734 26.72851562 C-18.34254141 20.89445035 -16.11237073 15.06081963 -13.86328125 9.234375 C-13.58074997 8.49656799 -13.29821869 7.75876099 -13.00712585 6.99859619 C-11.11567148 2.11567148 -11.11567148 2.11567148 -10 1 C-6.62658866 0.43776478 -3.42229689 0 0 0 Z " fill="#FAFDFC" transform="translate(617,635)"/>
<path d="M0 0 C14.85 0 29.7 0 45 0 C45 1.65 45 3.3 45 5 C44 6 44 6 40.5625 6.375 C39.386875 6.58125 38.21125 6.7875 37 7 C34.59763257 10.60355114 34.74190357 12.24929552 34.7253418 16.53515625 C34.72023087 17.19401825 34.71511993 17.85288025 34.70985413 18.53170776 C34.6959583 20.70873099 34.69691461 22.88543771 34.69921875 25.0625 C34.69533221 26.57560341 34.69099763 28.08870574 34.68623352 29.60180664 C34.67877165 32.77265969 34.67906261 35.94340138 34.68432617 39.11425781 C34.69012526 43.17993034 34.67317945 47.24514796 34.6499815 51.31074524 C34.63525952 54.43512644 34.63437026 57.55939764 34.63749123 60.68380737 C34.63697738 62.18294171 34.6317278 63.68208211 34.62167931 65.18118286 C34.6093594 67.27603867 34.61607831 69.37000252 34.62768555 71.46484375 C34.62705612 72.657146 34.6264267 73.84944824 34.6257782 75.07788086 C34.76602863 77.97946085 34.76602863 77.97946085 36.32673645 79.88354492 C39.0476684 81.69903794 41.59671187 81.39554817 44.8125 81.375 C46.61654297 81.38660156 46.61654297 81.38660156 48.45703125 81.3984375 C53.37078237 80.84584366 56.69598905 79.30401095 60.1875 75.8125 C62.44085132 72.31592037 63.66523228 68.93756478 65 65 C66.98 65 68.96 65 71 65 C71.15265182 70.11715463 70.62944468 74.82515395 69.5625 79.8125 C69.36043945 80.81313477 69.36043945 80.81313477 69.15429688 81.83398438 C68.14608434 86.70783133 68.14608434 86.70783133 67 89 C44.56 89 22.12 89 -1 89 C-1 87.02 -1 85.04 -1 83 C-0.36191406 82.87882813 0.27617187 82.75765625 0.93359375 82.6328125 C1.75988281 82.46523438 2.58617187 82.29765625 3.4375 82.125 C4.26121094 81.96257812 5.08492188 81.80015625 5.93359375 81.6328125 C6.95646484 81.31957031 6.95646484 81.31957031 8 81 C9.43132419 78.13735162 9.13520272 75.68631268 9.14526367 72.48657227 C9.14862228 71.81810272 9.1519809 71.14963318 9.15544128 70.46090698 C9.16495818 68.24605462 9.16689474 66.0312778 9.16796875 63.81640625 C9.17118074 62.27945423 9.17454476 60.74250252 9.17805481 59.20555115 C9.18404787 55.98167207 9.18589452 52.75781981 9.18530273 49.53393555 C9.18520108 45.39995904 9.19885554 41.26615417 9.21607494 37.13221836 C9.22718531 33.9572419 9.22922224 30.78230707 9.22869301 27.60731316 C9.2298745 26.08306219 9.2343057 24.5588102 9.24202538 23.03457832 C9.25180631 20.90387014 9.24895499 18.77353629 9.24291992 16.64282227 C9.24434494 15.42973892 9.24576996 14.21665558 9.24723816 12.96681213 C9.22532774 9.81399953 9.22532774 9.81399953 7 7 C3.43230448 6.26393501 3.43230448 6.26393501 0 6 C0 4.02 0 2.04 0 0 Z " fill="#F8FCFA" transform="translate(456,637)"/>
<path d="M0 0 C14.52 0 29.04 0 44 0 C44 1.65 44 3.3 44 5 C43.44570313 5.17015625 42.89140625 5.3403125 42.3203125 5.515625 C41.59585938 5.75796875 40.87140625 6.0003125 40.125 6.25 C39.40570312 6.48203125 38.68640625 6.7140625 37.9453125 6.953125 C35.4072151 8.31900874 35.03095982 9.31857103 34 12 C33.68366879 15.00301044 33.68366879 15.00301044 33.70947266 18.35742188 C33.69671295 19.64555786 33.68395325 20.93369385 33.67080688 22.26086426 C33.66774981 23.66349131 33.66552174 25.06612038 33.6640625 26.46875 C33.65763366 27.91076795 33.65090523 29.35278459 33.64389038 30.7947998 C33.63192728 33.81423976 33.6282087 36.83356537 33.62939453 39.85302734 C33.62959801 43.72028042 33.60226262 47.58680101 33.56785011 51.45388031 C33.54560711 54.43075932 33.54155612 57.40746106 33.54261398 60.38441467 C33.54025537 61.81017081 33.53141707 63.23593165 33.51594925 64.66160583 C33.49633986 66.65516691 33.50463682 68.64894335 33.51416016 70.64257812 C33.51131012 71.77634888 33.50846008 72.91011963 33.50552368 74.07824707 C34.11190187 77.66120379 35.12512461 78.83793668 38 81 C41.29418576 81.59649968 41.29418576 81.59649968 44.875 81.4375 C46.06867187 81.43621094 47.26234375 81.43492187 48.4921875 81.43359375 C53.0834326 80.86607904 56.53595299 79.69857881 59.609375 76.1328125 C59.98578125 75.47023438 60.3621875 74.80765625 60.75 74.125 C61.15089844 73.42632813 61.55179688 72.72765625 61.96484375 72.0078125 C63.14298909 69.72265511 64.1639169 67.43224176 65 65 C66.98 65 68.96 65 71 65 C70.27630988 73.25006737 68.65433298 80.72833509 67 89 C44.56 89 22.12 89 -1 89 C-1 87.02 -1 85.04 -1 83 C1.01822917 82.57682292 3.03645833 82.15364583 5.0546875 81.73046875 C7.37046549 81.07691162 7.37046549 81.07691162 9 78 C9.3123176 74.96703628 9.3123176 74.96703628 9.2746582 71.46484375 C9.27976913 70.80598175 9.28488007 70.14711975 9.29014587 69.46829224 C9.3040417 67.29126901 9.30308539 65.11456229 9.30078125 62.9375 C9.30466779 61.42439659 9.30900237 59.91129426 9.31376648 58.39819336 C9.32122835 55.22734031 9.32093739 52.05659862 9.31567383 48.88574219 C9.30987474 44.82006966 9.32682055 40.75485204 9.3500185 36.68925476 C9.36474048 33.56487356 9.36562974 30.44060236 9.36250877 27.31619263 C9.36302262 25.81705829 9.3682722 24.31791789 9.37832069 22.81881714 C9.3906406 20.72396133 9.38392169 18.62999748 9.37231445 16.53515625 C9.37325859 14.74670288 9.37325859 14.74670288 9.3742218 12.92211914 C9.23948527 10.02413288 9.23948527 10.02413288 7.6759491 8.16577148 C5.29211801 6.50760519 2.77170581 5.80071501 0 5 C0 3.35 0 1.7 0 0 Z " fill="#FDFEFD" transform="translate(699,637)"/>
<path d="M0 0 C2 1 2 1 2.86962891 2.9777832 C3.15241699 3.82687256 3.43520508 4.67596191 3.7265625 5.55078125 C4.0359375 6.47697266 4.3453125 7.40316406 4.6640625 8.35742188 C4.98117187 9.33259766 5.29828125 10.30777344 5.625 11.3125 C5.94984375 12.27607422 6.2746875 13.23964844 6.609375 14.23242188 C7.9857646 18.40496428 9 21.56034828 9 26 C3.39 26 -2.22 26 -8 26 C-5.92339346 17.03780336 -3.21909639 8.60122197 0 0 Z " fill="#10AB5B" transform="translate(361,665)"/>
<path d="M0 0 C2.24487536 2.24487536 2.73391254 3.69913932 3.7265625 6.68359375 C4.0359375 7.61107422 4.3453125 8.53855469 4.6640625 9.49414062 C4.98117187 10.46544922 5.29828125 11.43675781 5.625 12.4375 C5.94984375 13.40494141 6.2746875 14.37238281 6.609375 15.36914062 C9 22.6063058 9 22.6063058 9 26 C3.39 26 -2.22 26 -8 26 C-6.94736884 19.77990678 -5.43213266 13.90997969 -3.4375 7.9375 C-3.10455933 6.93674438 -3.10455933 6.93674438 -2.76489258 5.91577148 C-1.13506369 1.13506369 -1.13506369 1.13506369 0 0 Z " fill="#10AB5B" transform="translate(604,665)"/>
<path d="M0 0 C0.33 0 0.66 0 1 0 C1 9.24 1 18.48 1 28 C0.67 28 0.34 28 0 28 C-0.06058594 27.02417969 -0.12117187 26.04835938 -0.18359375 25.04296875 C-0.26738281 23.77066406 -0.35117187 22.49835938 -0.4375 21.1875 C-0.51871094 19.92292969 -0.59992187 18.65835937 -0.68359375 17.35546875 C-0.87184547 14.00818107 -0.87184547 14.00818107 -2 11 C-1.66015625 8.30078125 -1.66015625 8.30078125 -1.0625 5.3125 C-0.86785156 4.31863281 -0.67320312 3.32476562 -0.47265625 2.30078125 C-0.31667969 1.54152344 -0.16070313 0.78226562 0 0 Z " fill="#2FB670" transform="translate(524,375)"/>
<path d="M0 0 C1 2 1 2 0.375 4.5 C-1 7 -1 7 -3.625 8.3125 C-4.40875 8.539375 -5.1925 8.76625 -6 9 C-4.47291037 5.56404834 -2.40072955 2.88087546 0 0 Z " fill="#DDF3E7" transform="translate(165,452)"/>
</svg>
