<?xml version="1.0" encoding="UTF-8"?><svg version="1.1" width="24px" height="24px" viewBox="0 0 24.0 24.0" xmlns="http://www.w3.org/2000/svg" xmlns:xlink="http://www.w3.org/1999/xlink"><defs><clipPath id="i0"><path d="M12,0 C18.627417,0 24,5.372583 24,12 C24,18.627417 18.627417,24 12,24 C5.372583,24 0,18.627417 0,12 C0,5.372583 5.372583,0 12,0 Z"></path></clipPath><clipPath id="i1"><path d="M8.583675,0 L8.583675,2.3625 L11.173275,6.50445 L11.173275,16.3503 L0,16.3503 L0,6.5046 L2.58855,2.3625 L2.58855,0 L8.583675,0 Z"></path></clipPath></defs><g clip-path="url(#i0)"><polygon points="0,0 24,0 24,24 0,24 0,0" stroke="none" fill="#70C6EF" opacity="45.3030541%"></polygon></g><g transform="translate(5.850600000000038 3.364428750000002)"><g transform="translate(1.125524999999925 0.9208425000000062)"><g clip-path="url(#i1)"><polygon points="0,0 11.173275,0 11.173275,16.3503 0,16.3503 0,0" stroke="none" fill="#71C6EF"></polygon></g></g><g transform="translate(0.0 2.0709600000000012)"><polygon points="10.3551,13.461675 0,13.461675 0,4.1421 2.588775,0 7.766325,0 10.3551,4.1421 10.3551,13.461675 10.3551,13.461675" stroke="#3B3B3A" stroke-width="0.818175" fill="none" stroke-miterlimit="10"></polygon></g><g transform="translate(2.58879 0.0)"><path d="M0,2.070975 L0,0 L5.17755,0 L5.17755,2.070975 L2.6049,6.213075 L2.588775,15.53265" stroke="#3B3B3A" stroke-width="0.818175" fill="none" stroke-miterlimit="10"></path></g><g transform="translate(7.500000000160156e-06 6.175537500000001)"><path d="M0,0.0625 L5.17755,0.0625" stroke="#3B3B3A" stroke-width="0.818175" fill="none" stroke-miterlimit="10"></path></g><g transform="translate(1.5532574999997448 8.2465725)"><path d="M0,0.0625 L2.07105,0.0625" stroke="#3B3B3A" stroke-width="0.818175" fill="none" stroke-miterlimit="10"></path></g><g transform="translate(1.5532574999997448 10.31757)"><path d="M0,0.0625 L2.07105,0.0625" stroke="#3B3B3A" stroke-width="0.818175" fill="none" stroke-miterlimit="10"></path></g></g></svg>