<?xml version="1.0" encoding="UTF-8"?><svg version="1.1" width="24px" height="24px" viewBox="0 0 24.0 24.0" xmlns="http://www.w3.org/2000/svg" xmlns:xlink="http://www.w3.org/1999/xlink"><defs><clipPath id="i0"><path d="M12,0 C18.627417,0 24,5.372583 24,12 C24,18.627417 18.627417,24 12,24 C5.372583,24 0,18.627417 0,12 C0,5.372583 5.372583,0 12,0 Z"></path></clipPath><clipPath id="i1"><path d="M4.61437855,0 L5.60453071,2.47480697 L6.71976,2.47480697 L6.71976,4.4541078 L7.70991216,4.4541078 L7.70991216,15.6269721 L0,15.6269721 L0,4.4541078 L0.990152156,4.4541078 L0.990152156,2.47480697 L2.10538145,2.47480697 L3.0955336,0 L4.61437855,0 Z"></path></clipPath></defs><g clip-path="url(#i0)"><polygon points="0,0 24,0 24,24 0,24 0,0" stroke="none" fill="#D78D29" opacity="45.3030541%"></polygon></g><g transform="translate(9.307871196441532 4.626204863231878)"><g clip-path="url(#i1)"><polygon points="0,0 7.70991216,0 7.70991216,15.6269721 0,15.6269721 0,0" stroke="none" fill="#D78D29"></polygon></g></g><g transform="translate(8.232924628761646 8.20022838297609)"><polygon points="0,10.3911502 6.92748122,10.3911502 6.92748122,0 0,0 0,10.3911502 0,10.3911502" stroke="#3B3B3A" stroke-width="0.781929193" fill="none" stroke-miterlimit="10"></polygon></g><g transform="translate(9.222618049304975 6.220898883840009)"><path d="M0,1.97930083 L0,0 L4.94818039,0 L4.94818039,1.97930083" stroke="#3B3B3A" stroke-width="0.781929193" fill="none" stroke-miterlimit="10"></path></g><g transform="translate(10.21223979240897 3.746823022847992)"><path d="M0,2.4740902 L0.989650414,0 L1.97930083,0 L2.96887956,2.4740902" stroke="#3B3B3A" stroke-width="0.781929193" fill="none" stroke-miterlimit="10"></path></g><g transform="translate(10.17640107240893 12.15874402636803)"><path d="M0.06222,4.94818039 L0.06222,0" stroke="#3B3B3A" stroke-width="0.781929193" fill="none" stroke-miterlimit="10"></path></g><g transform="translate(10.17640107240893 10.17945753369609)"><path d="M0.06222,0.989650414 L0.06222,0" stroke="#3B3B3A" stroke-width="0.781929193" fill="none" stroke-miterlimit="10"></path></g></svg>