<?xml version="1.0" encoding="UTF-8"?><svg version="1.1" width="24px" height="24px" viewBox="0 0 24.0 24.0" xmlns="http://www.w3.org/2000/svg" xmlns:xlink="http://www.w3.org/1999/xlink"><defs><clipPath id="i0"><path d="M12,0 C18.627417,0 24,5.372583 24,12 C24,18.627417 18.627417,24 12,24 C5.372583,24 0,18.627417 0,12 C0,5.372583 5.372583,0 12,0 Z"></path></clipPath><clipPath id="i1"><path d="M6.2262229,0 L6.2262229,1.10190006 C8.9550173,1.21038358 10.2906624,2.45604403 10.9330312,3.50804023 C11.6277108,4.64508058 11.6687901,5.77672303 11.6711272,5.92496707 L11.671264,6.33083457 L10.7248116,6.33083457 C11.1227518,10.5751718 9.86440033,12.8855912 8.71646827,14.0862951 C7.40534487,15.4570737 5.96322384,15.719069 5.90156104,15.7298241 L5.83509426,15.741583 L5.76862749,15.7298241 C5.7079685,15.719069 4.26584747,15.4570737 2.95472407,14.0862951 C1.80578819,12.8855912 0.548440496,10.5751718 0.947384531,6.33083457 L0,6.33083457 L0.000827429321,5.89547722 C0.00802075014,5.66354529 0.0772116703,4.58822856 0.737157372,3.50804023 C1.38052991,2.45604403 2.71517123,1.21038358 5.44396563,1.10190006 L5.44396563,0 L6.2262229,0 Z"></path></clipPath></defs><g clip-path="url(#i0)"><polygon points="0,0 24,0 24,24 0,24 0,0" stroke="none" fill="#845230" opacity="45.3030541%"></polygon></g><g transform="translate(7.480421236940693 4.764747690047915)"><g clip-path="url(#i1)"><polygon points="0,0 11.671264,0 11.671264,15.741583 0,15.741583 0,0" stroke="none" fill="#AC7854"></polygon></g></g><g transform="translate(11.81333059976766 3.49366926201601)"><path d="M0.0622404,1.48492648 L0.0622404,0" stroke="#3B3B3A" stroke-width="0.782185563" fill="none" stroke-miterlimit="10"></path></g><g transform="translate(6.4043908781671055 4.978581405795838)"><path d="M0,4.45485115 L10.8895804,4.45485115 C10.8895804,4.45485115 10.8895804,0 5.44482604,0 C0,0 0,4.45485115 0,4.45485115 Z" stroke="#3B3B3A" stroke-width="0.782185563" fill="none" stroke-miterlimit="10"></path></g><g transform="translate(7.274034103724064 9.433432558640519)"><path d="M0.120310154,0 C-0.869664736,8.46415266 4.57516131,9.4046539 4.57516131,9.4046539 C4.57516131,9.4046539 10.0199156,8.46415266 9.03001246,0" stroke="#3B3B3A" stroke-width="0.782185563" fill="none" stroke-miterlimit="10"></path></g><g transform="translate(11.10087420150767 16.49363060667643)"><path d="M0,0 C0.23016002,0.224782449 0.460248339,0.413284223 0.682592956,0.571384797" stroke="#3B3B3A" stroke-width="0.782185563" fill="none" stroke-miterlimit="10"></path></g><g transform="translate(9.186652674688347 12.89829448167148)"><path d="M0,0 C0.297774007,1.26064594 0.779317526,2.20616625 1.31391974,2.91335263" stroke="#3B3B3A" stroke-width="0.782185563" fill="none" stroke-miterlimit="10"></path></g><g transform="translate(14.32411112413682 7.948455884014018)"><path d="M0.938637016,0.31326141 L0,0" stroke="#3B3B3A" stroke-width="0.782185563" fill="none" stroke-miterlimit="10"></path></g><g transform="translate(13.28761666412044 6.463536570140067)"><path d="M0.0437550012,0.989472983 L0.0807257988,0" stroke="#3B3B3A" stroke-width="0.782185563" fill="none" stroke-miterlimit="10"></path></g><g transform="translate(10.85921335063513 7.45351145976568)"><path d="M0.932972642,0.331114945 L0,0" stroke="#3B3B3A" stroke-width="0.782185563" fill="none" stroke-miterlimit="10"></path></g><g transform="translate(8.585382925328188 6.958531185046855)"><path d="M0.788925452,0 L0,0.597914145" stroke="#3B3B3A" stroke-width="0.782185563" fill="none" stroke-miterlimit="10"></path></g></svg>