<?xml version="1.0" encoding="UTF-8"?><svg version="1.1" width="24px" height="24px" viewBox="0 0 24.0 24.0" xmlns="http://www.w3.org/2000/svg" xmlns:xlink="http://www.w3.org/1999/xlink"><defs><clipPath id="i0"><path d="M12,0 C18.627417,0 24,5.372583 24,12 C24,18.627417 18.627417,24 12,24 C5.372583,24 0,18.627417 0,12 C0,5.372583 5.372583,0 12,0 Z"></path></clipPath><clipPath id="i1"><path d="M8.00175802,0 C8.00175802,1.44730793 6.80530467,1.82960249 6.17320424,1.82960249 L1.34621101,1.82960249 C1.17268228,1.83239909 0.762701426,1.89630129 0.762701426,2.41304217 C0.762701426,2.92978305 1.17268228,2.99368525 1.35005633,2.99746065 L3.2100718,2.99746065 C3.45701116,2.70290926 3.82881849,2.51504798 4.24257475,2.51504798 C4.65633101,2.51504798 5.02722945,2.70290926 5.2741688,2.99746065 L10.516806,2.99746065 C10.5635091,2.99746065 15.2417934,3.05087562 15.2417934,7.72244807 C15.2417934,12.3005891 10.7487692,12.4434516 10.5250916,12.4473349 L8.5861765,12.4474355 C8.55953893,12.4483444 7.84542834,12.4693888 7.47935403,13.2025162 C7.08424174,13.9926755 7.04133513,14.4224072 7.03737031,14.4793193 L7.03700259,14.8671196 L6.65561692,14.8613866 C6.07784035,14.8613866 5.03107476,14.5420154 4.85272191,13.3864622 C3.69625988,13.2081793 3.37786751,12.1614137 3.37786751,11.5836371 L3.37786751,11.2023214 L3.75925318,11.2023214 C3.75925318,11.2023214 4.19202629,11.1823257 5.03673787,10.7599699 C6.71854031,9.91903377 7.61184273,9.75410457 8.5861765,9.75410457 C8.76257174,9.75221687 9.65300765,9.69118118 9.65300765,8.68818231 C9.65300765,7.68525335 8.76257174,7.62330877 8.5842888,7.62142107 L4.24257475,7.62142107 C3.10897488,7.62142107 0.964825344,7.03700259 0.964825344,4.82699323 L0.964825344,3.70583821 C0.491991011,3.57334952 0,3.18623083 0,2.41304217 C0,1.42535466 0.804720269,1.06690107 1.34621101,1.06690107 L6.17320424,1.06690107 C6.34862068,1.06494345 7.2391265,1.00299887 7.2391265,0 L8.00175802,0 Z"></path></clipPath></defs><g clip-path="url(#i0)"><polygon points="0,0 24,0 24,24 0,24 0,0" stroke="none" fill="#E42E5E" opacity="45.3030541%"></polygon></g><g transform="translate(5.192286514760571 5.186109778175972)"><g clip-path="url(#i1)"><polygon points="0,0 15.2417934,0 15.2417934,14.8671196 0,14.8671196 0,0" stroke="none" fill="#E42D5E"></polygon></g></g><g transform="translate(5.108521497032323 7.325337310463892)"><path d="M0,0 L0,1.44793716 C0,3.86125899 2.89587433,3.86125899 2.89587433,3.86125899 L7.23975574,3.86125899 C7.23975574,3.86125899 8.6876929,3.86125899 8.6876929,5.30919616 C8.6876929,6.75713332 7.23975574,6.75713332 7.23975574,6.75713332 C6.27444099,6.75713332 5.41756422,6.94422554 3.86118908,7.72244807 C2.89587433,8.20507049 2.41325191,8.20507049 2.41325191,8.20507049 C2.41325191,8.20507049 2.41325191,9.65307757 3.86118908,9.65307757 C3.86118908,11.1010147 5.30919616,11.1010147 5.30919616,11.1010147 C5.30919616,11.1010147 5.30919616,10.6183224 5.79181857,9.65307757 C6.27444099,8.6876929 7.23975574,8.6876929 7.23975574,8.6876929 L9.17038524,8.6876929 C9.17038524,8.6876929 13.5141967,8.6876929 13.5141967,4.34388141 C13.5141967,0 9.17038524,0 9.17038524,0 L3.69479166,0" stroke="#3B3B3A" stroke-width="0.762701426" fill="none" stroke-miterlimit="10"></path></g><g transform="translate(4.143171791432405 3.9467706493439745)"><path d="M3.07010221,3.37856666 L0.965384663,3.37856666 C0.965384663,3.37856666 0,3.37856666 0,2.41325191 C0,1.44800708 0.965384663,1.44800708 0.965384663,1.44800708 L5.79188849,1.44800708 C5.79188849,1.44800708 7.23982565,1.44800708 7.23982565,0" stroke="#3B3B3A" stroke-width="0.762701426" fill="none" stroke-miterlimit="10"></path></g><g transform="translate(7.039081078472843 6.842700910847877)"><path d="M1.9306295,0.965314748 C1.9306295,0.432213788 1.4988352,0 0.965314748,0 C0.431794299,0 0,0.432213788 0,0.965314748 C0,1.49834579 0.431794299,1.9306295 0.965314748,1.9306295 C1.4988352,1.9306295 1.9306295,1.49834579 1.9306295,0.965314748 Z" stroke="#3B3B3A" stroke-width="0.762701426" fill="none" stroke-miterlimit="10"></path></g><g transform="translate(11.8306554303447 7.325302353023935)"><path d="M0.06069,3.86125899 L0.06069,0" stroke="#3B3B3A" stroke-width="0.762701426" fill="none" stroke-miterlimit="10"></path></g><g transform="translate(13.796228383688792 8.290645067135856)"><path d="M0,3.37856666 L3.37856666,0" stroke="#3B3B3A" stroke-width="0.762701426" fill="none" stroke-miterlimit="10"></path></g><g transform="translate(13.79622838368832 12.63449851046395)"><path d="M0,0 L3.86118908,1.9306295" stroke="#3B3B3A" stroke-width="0.762701426" fill="none" stroke-miterlimit="10"></path></g><g transform="translate(12.34825626144901 14.08246364121583)"><path d="M0,0 L0.482622417,1.93055958" stroke="#3B3B3A" stroke-width="0.762701426" fill="none" stroke-miterlimit="10"></path></g></svg>