<?xml version="1.0" encoding="UTF-8"?><svg version="1.1" width="24px" height="24px" viewBox="0 0 24.0 24.0" xmlns="http://www.w3.org/2000/svg" xmlns:xlink="http://www.w3.org/1999/xlink"><defs><clipPath id="i0"><path d="M12,0 C18.627417,0 24,5.372583 24,12 C24,18.627417 18.627417,24 12,24 C5.372583,24 0,18.627417 0,12 C0,5.372583 5.372583,0 12,0 Z"></path></clipPath><clipPath id="i1"><path d="M15.4386609,0 L15.4386609,15.4441875 L0,15.4441875 L0,0 L15.4386609,0 Z"></path></clipPath><clipPath id="i2"><path d="M6.15951094,0 L6.49596094,0.1125 C7.38163594,0.408075 8.05566094,0.908175 8.38393594,1.18425 C8.69683594,0.71175 8.98018594,0.4254 8.99961094,0.405975 L9.28903594,0.11655 L9.57748594,0.405975 C9.61318594,0.441825 10.3056609,1.143375 10.5152859,2.015775 C11.8652859,1.690575 13.0526859,2.04135 13.1078859,2.0577 L13.3175859,2.121075 L13.3809609,2.330775 C13.3983609,2.385975 13.7480859,3.574425 13.4239359,4.923375 C14.2963359,5.13405 14.9978859,5.82645 15.0326859,5.862225 L15.3221109,6.1506 L15.0326859,6.4401 C15.0132609,6.459525 14.7269109,6.7428 14.2554609,7.055775 C14.5325859,7.38405 15.0306609,8.05905 15.3261609,8.94375 L15.4386609,9.2802 L15.1216359,9.43875 C14.6082609,9.695475 14.0774859,9.823275 13.5364359,9.823275 C12.5699859,9.823275 11.5727859,9.41625 10.5869109,8.6103 C10.4048109,8.460975 10.2340359,8.3076 10.0754859,8.15415 C9.35961094,9.418275 7.67923594,12.2349 6.01731094,13.896825 C4.97616094,14.937975 4.02613594,15.444225 3.11376094,15.444225 L3.07701094,15.444225 C2.12173594,15.4299 1.44058594,14.857125 1.01211094,14.4276 C-0.494339061,12.92115 -0.320489061,11.283675 1.54288594,9.42135 C3.20383594,7.7604 6.02038594,6.07905 7.28548594,5.3652 C7.13211094,5.205675 6.97768594,5.03385 6.82836094,4.850775 C5.57143594,3.314625 5.28508594,1.74675 5.99991094,0.318075 L6.15951094,0 Z"></path></clipPath></defs><g clip-path="url(#i0)"><polygon points="0,0 24,0 24,24 0,24 0,0" stroke="none" fill="#229E66" opacity="45.3030541%"></polygon></g><g transform="translate(4.979879999999778 3.6532517499999955)"><g transform="translate(1.1303469060403586 0.8287875000000033)"><g clip-path="url(#i1)"><g clip-path="url(#i2)"><polygon points="2.22044605e-16,0 15.4386609,0 15.4386609,15.4441875 2.22044605e-16,15.4441875 2.22044605e-16,0" stroke="none" fill="#229E66"></polygon></g></g></g><g transform="translate(7.525808261500059 0.19467000000000212)"><path d="M4.96309458,4.5783 C5.48291958,3.149925 5.06021958,1.75395 5.06021958,1.75395 C5.06021958,1.75395 3.66469458,1.331775 2.23481958,1.851525 C2.26811958,0.909525 1.35904458,0 1.35904458,0 C1.35904458,0 -1.56348042,2.922375 1.16284458,5.6502 C3.89119458,8.377575 6.81371958,5.455575 6.81371958,5.455575 C6.81371958,5.455575 5.90456958,4.545975 4.96309458,4.5783 Z" stroke="#3B3B3A" stroke-width="0.818175" fill="none" stroke-miterlimit="10"></path></g><g transform="translate(0.0 4.870597500000002)"><path d="M7.71592535,0 C7.71592535,0 3.55357535,2.213625 1.42800035,4.3392 C-0.697649655,6.4644 -0.076724655,7.793175 0.897075345,8.7675 C1.87080035,9.7413 3.19957535,10.3611 5.32425035,8.23605 C7.45095035,6.110475 9.66450035,1.94865 9.66450035,1.94865" stroke="#3B3B3A" stroke-width="0.818175" fill="none" stroke-miterlimit="10"></path></g><g transform="translate(0.8672594339682291 5.844899999999996)"><path d="M7.82140091,0 C7.82140091,0 -0.560749089,5.78535 0.0298009111,7.793175" stroke="#3B3B3A" stroke-width="0.818175" fill="none" stroke-miterlimit="10"></path></g><g transform="translate(5.620810472282301 0.0)"><path d="M3.06784987,5.8449 C3.06784987,5.8449 -1.21772513,3.117075 0.341524873,0 C1.51054987,0.390225 2.28919987,1.169475 2.28919987,1.169475" stroke="#3B3B3A" stroke-width="0.818175" fill="none" stroke-miterlimit="10"></path></g><g transform="translate(8.688660345039807 5.844899999999996)"><path d="M0,0 C0,0 2.72835,4.285725 5.84595,2.727375 C5.45565,1.558875 4.6761,0.779175 4.6761,0.779175" stroke="#3B3B3A" stroke-width="0.818175" fill="none" stroke-miterlimit="10"></path></g></g></svg>