<?xml version="1.0" encoding="UTF-8"?><svg version="1.1" width="24px" height="24px" viewBox="0 0 24.0 24.0" xmlns="http://www.w3.org/2000/svg" xmlns:xlink="http://www.w3.org/1999/xlink"><defs><clipPath id="i0"><path d="M12,0 C18.627417,0 24,5.372583 24,12 C24,18.627417 18.627417,24 12,24 C5.372583,24 0,18.627417 0,12 C0,5.372583 5.372583,0 12,0 Z"></path></clipPath><clipPath id="i1"><path d="M9.67826711,0.0216676503 C10.6599,0.290224687 11.9036298,3.59681398 11.0300503,6.80065636 L11.0185144,6.84264724 C11.8984001,6.38951492 12.664003,6.23962441 13.0362299,6.43781212 C13.9329581,6.91916908 14.4090854,10.4197931 12.842272,13.3467726 C12.3640682,14.2381943 11.8753282,14.9009734 11.3604401,15.3393397 C10.8454751,15.777706 10.3043619,15.9938129 9.72018108,15.9938129 C9.2325178,15.9938129 8.71655298,15.8438455 8.16182735,15.5459871 C6.77643603,14.8045328 6.28246643,13.7557607 6.65584685,12.246627 C6.54679362,12.3347617 6.4293576,12.420743 6.30238518,12.5046479 C5.88293785,12.7815108 5.28514465,13.113977 4.57937491,13.113977 C4.40002926,13.113977 4.21437729,13.0929816 4.02149612,13.0437615 C3.15629948,12.8214252 2.31202137,12.0704345 1.43844194,10.7480295 C-0.392621778,7.97940027 -0.24373105,4.44947488 0.604700002,3.88728933 C1.23917754,3.46891869 3.24220389,4.0571755 4.97790371,5.53485445 C5.00620526,5.41526505 5.03765996,5.29467587 5.07119114,5.17201021 C5.94477057,1.97132099 8.69663423,-0.244659102 9.67826711,0.0216676503 Z"></path></clipPath></defs><g clip-path="url(#i0)"><polygon points="0,0 24,0 24,24 0,24 0,0" stroke="none" fill="#DAB06E" opacity="45.3030541%"></polygon></g><g transform="translate(5.641239795494429 4.476844044216899)"><g clip-path="url(#i1)"><polygon points="0,0 13.8660719,0 13.8660719,15.9938129 0,15.9938129 0,0" stroke="none" fill="#DAB06E"></polygon></g></g><g transform="translate(4.492688275108165 7.2797870764204555)"><path d="M5.8163303,3.40700321 C4.06178842,0.751426323 0.969614085,-0.296422941 0.411735292,0.0711894979 C-0.14406703,0.439186469 -0.391936254,3.69532518 1.36368232,6.35082516 C3.11814729,9.00594061 4.41640369,8.80267708 5.64621342,7.98870008 C6.87602315,7.17526143 7.57187197,6.06111888 5.8163303,3.40700321 Z" stroke="#3B3B3A" stroke-width="0.838971569" fill="none" stroke-miterlimit="10"></path></g><g transform="translate(6.307372604091396 9.07949333893624)"><path d="M0,0 C0.077752338,0.946255952 0.376456671,2.15530096 1.01001133,3.31666403" stroke="#3B3B3A" stroke-width="0.838971569" fill="none" stroke-miterlimit="10"></path></g><g transform="translate(11.0183708866943 9.87649942751127)"><path d="M5.52261679,6.38585642 C7.02413672,3.58000449 6.47656338,0.360165578 5.8886142,0.0450801878 C5.30074192,-0.268620887 2.31846678,1.06016734 0.81487038,3.86663452 C-0.686649549,6.67217882 0.109715892,7.7177978 1.40912589,8.41364662 C2.70938185,9.10949544 4.02009708,9.19132381 5.52261679,6.38585642 Z" stroke="#3B3B3A" stroke-width="0.838971569" fill="none" stroke-miterlimit="10"></path></g><g transform="translate(14.67867690471222 12.9296952933043)"><path d="M0,2.79093209 C0.211492512,2.49638071 0.427137968,2.14799486 0.64709018,1.73839154 C0.9528699,1.16713104 1.17382189,0.578105168 1.3272501,0" stroke="#3B3B3A" stroke-width="0.838971569" fill="none" stroke-miterlimit="10"></path></g><g transform="translate(13.2352212837199 16.43248811150584)"><path d="M0,0.546958089 C0.271710198,0.442288522 0.548496217,0.266019127 0.830511868,0" stroke="#3B3B3A" stroke-width="0.838971569" fill="none" stroke-miterlimit="10"></path></g><g transform="translate(11.23809364758551 8.999141565649847)"><path d="M0,2.60797185 C0.246792535,2.34195272 0.50289074,2.02202223 0.771447777,1.6424893 C1.14475129,1.11268133 1.43507283,0.555340883 1.6570246,0" stroke="#3B3B3A" stroke-width="0.838971569" fill="none" stroke-miterlimit="10"></path></g><g transform="translate(9.313496407111797 3.5293430800973185)"><path d="M4.99806795,7.40627007 C5.1338846,7.08118685 5.26139535,6.70588378 5.37967735,6.27390071 C6.21749532,3.20356778 4.96592109,0.186530961 4.32298385,0.0107999096 C3.67904683,-0.164008265 1.06799873,1.79741174 0.230103853,4.86728324 C0.124357597,5.25143054 0.0497584201,5.60050855 0,5.91828566" stroke="#3B3B3A" stroke-width="0.838971569" fill="none" stroke-miterlimit="10"></path></g></svg>