<?xml version="1.0" encoding="UTF-8"?><svg version="1.1" width="24px" height="24px" viewBox="0 0 24.0 24.0" xmlns="http://www.w3.org/2000/svg" xmlns:xlink="http://www.w3.org/1999/xlink"><defs><clipPath id="i0"><path d="M12,0 C18.627417,0 24,5.372583 24,12 C24,18.627417 18.627417,24 12,24 C5.372583,24 0,18.627417 0,12 C0,5.372583 5.372583,0 12,0 Z"></path></clipPath><clipPath id="i1"><path d="M14.3467926,0 L14.3467926,16.231725 L0,16.231725 L0,0 L14.3467926,0 Z"></path></clipPath><clipPath id="i2"><path d="M13.4589351,0 C13.4660601,0.0951 13.5346101,1.1475 13.1644101,2.737875 C13.2686601,2.8698 13.3996101,3.051825 13.5367101,3.281925 C13.8342351,3.78 14.1584601,4.5 14.2894101,5.415375 C14.5256601,7.073175 14.1451851,9.712875 10.9870101,12.87105 C8.30741007,15.551625 6.00116007,16.231725 4.35056007,16.231725 C4.05596007,16.231725 3.78191007,16.2102 3.53028507,16.17345 C1.70066007,15.9126 0.646235066,14.876625 0.602285066,14.8326 C-0.254814934,13.975575 -0.460389934,12.1797 1.77933507,9.9399 C2.43701007,9.2823 3.32576007,8.885475 3.71133507,8.734125 C3.86268507,8.34855 4.25951007,7.45875 4.91711007,6.8022 C5.57471007,6.144525 6.46346007,5.7477 6.84903507,5.59635 C7.00038507,5.21085 7.39721007,4.322025 8.05383507,3.664425 C9.04796007,2.67135 10.2454851,2.337975 10.8714351,2.2275 C11.3582601,2.141625 11.9657601,2.11095 12.4270101,2.225475 C12.6980601,0.914325 12.6448101,0.082875 12.6427851,0.0624 L13.4589351,0 Z"></path></clipPath></defs><g clip-path="url(#i0)"><polygon points="0,0 24,0 24,24 0,24 0,0" stroke="none" fill="#76AA41" opacity="45.3030541%"></polygon></g><g transform="translate(4.260506034260782 2.0246504999999964)"><g transform="translate(1.1321953656874948 1.2984524999999962)"><g clip-path="url(#i1)"><g clip-path="url(#i2)"><polygon points="2.22044605e-16,0 14.3467926,0 14.3467926,16.231725 2.22044605e-16,16.231725 2.22044605e-16,0" stroke="none" fill="#76AA41"></polygon></g></g></g><g transform="translate(2.1932583305538174 10.72451625000001)"><path d="M4.1058646,1.05249375 C4.0188646,0.90939375 3.9116896,0.77394375 3.7883896,0.64996875 C2.9207146,-0.21665625 1.5160396,-0.21665625 0.650464601,0.64996875 C-0.0675853991,1.36749375 -0.190885399,2.45454375 0.279289601,3.29799375" stroke="#3B3B3A" stroke-width="0.818175" fill="none" stroke-miterlimit="10"></path></g><g transform="translate(5.330902931478249 7.586628750000003)"><path d="M4.07175,0.99841875 C3.9909,0.87444375 3.896775,0.75774375 3.787575,0.64996875 C2.921925,-0.21665625 1.51635,-0.21665625 0.6507,0.64996875 C-0.2169,1.51666875 -0.2169,2.92126875 0.6507,3.78789375 C0.758925,3.89656875 0.87615,3.99061875 0.9996,4.07146875" stroke="#3B3B3A" stroke-width="0.818175" fill="none" stroke-miterlimit="10"></path></g><g transform="translate(8.46926293147817 4.449614098325711)"><path d="M3.2197875,0.238065902 C2.3865375,-0.182534098 1.3448625,-0.0461090983 0.6492375,0.649665902 C-0.2164125,1.5157659 -0.2164125,2.9203659 0.6492375,3.7869159 C0.7583625,3.8947659 0.8737125,3.9902409 0.9970875,4.0711659" stroke="#3B3B3A" stroke-width="0.818175" fill="none" stroke-miterlimit="10"></path></g><g transform="translate(0.48955543147803837 0.0)"><path d="M12.159225,0 C12.159225,0 12.55155,5.099325 7.45185,10.197975 C3.13785,14.5119 0,14.5119 0,14.5119" stroke="#3B3B3A" stroke-width="0.818175" fill="none" stroke-miterlimit="10"></path></g><g transform="translate(0.0 2.527936920467866)"><path d="M12.2563129,0.21765558 C11.8649629,-0.17421942 9.51086293,-0.17421942 7.94141293,1.39470558 C7.15766293,2.17898058 6.76533793,3.35550558 6.76533793,3.35550558 C6.76533793,3.35550558 5.58926293,3.74738058 4.80461293,4.53210558 C4.01973793,5.31683058 3.62741293,6.49290558 3.62741293,6.49290558 C3.62741293,6.49290558 2.45141293,6.88530558 1.66668793,7.67003058 C-0.294187069,9.63128058 -0.294187069,11.1997556 0.489562931,11.9839556 C0.489562931,11.9839556 4.41221293,15.9066056 10.2955879,10.0232306 C16.1789629,4.14023058 12.2563129,0.21765558 12.2563129,0.21765558" stroke="#3B3B3A" stroke-width="0.818175" fill="none" stroke-miterlimit="10"></path></g></g></svg>