<?xml version="1.0" encoding="UTF-8"?><svg version="1.1" width="24px" height="24px" viewBox="0 0 24.0 24.0" xmlns="http://www.w3.org/2000/svg" xmlns:xlink="http://www.w3.org/1999/xlink"><defs><clipPath id="i0"><path d="M12,0 C18.627417,0 24,5.372583 24,12 C24,18.627417 18.627417,24 12,24 C5.372583,24 0,18.627417 0,12 C0,5.372583 5.372583,0 12,0 Z"></path></clipPath><clipPath id="i1"><path d="M10.98437,0 L10.98437,0.442294233 C10.98437,1.20864563 10.7941202,2.00816503 10.653663,2.49254777 C11.2995066,2.70266592 12.4761196,3.2002672 13.3530851,4.20990475 C14.7232727,2.81765917 17.1450242,2.79884504 17.2600175,2.79884504 L17.8261444,2.79998038 L17.6890932,3.34842847 C17.6670352,3.43698463 17.177138,5.36332442 16.1740692,6.60075891 C17.177138,7.8381934 17.6670352,9.76347895 17.6890932,9.85195402 L17.8261444,10.4015374 L17.2600175,10.4015374 C17.1472138,10.4015374 14.7364913,10.3838586 13.3641141,9.00264204 C11.9972513,10.7399485 10.0632075,11.5217891 7.18237502,11.5217891 C4.1247546,11.5217891 2.34544074,10.2212624 1.39224558,9.13093494 C0.353819167,7.94442835 0.0486572314,6.75775958 0.0354386835,6.70804811 L0,6.56313065 L0.0586319638,6.42599835 C0.13040138,6.25902296 1.83453981,2.38858349 5.83108261,2.24374713 C7.0596777,0.60156557 9.29458543,0 10.5419947,0 L10.98437,0 Z"></path></clipPath></defs><g clip-path="url(#i0)"><polygon points="0,0 24,0 24,24 0,24 0,0" stroke="none" fill="#2284C6" opacity="45.3030541%"></polygon></g><g transform="translate(4.18815402569896 6.7366418597875395)"><g clip-path="url(#i1)"><polygon points="0,0 17.8261444,0 17.8261444,11.5217891 0,11.5217891 0,0" stroke="none" fill="#2284C6"></polygon></g></g><g transform="translate(2.9943812924359996 5.741569040321476)"><path d="M0,6.15822139 C0,6.15822139 1.67948544,2.23880031 5.59825775,2.23880031 C6.71802284,0.559882542 8.95730972,0 10.0769937,0 C10.0769937,1.11911632 9.62861732,2.3514418 9.62861732,2.3514418 C9.62861732,2.3514418 11.7564791,2.79868285 12.8761631,4.47873596 C13.9958471,2.79868285 16.7950165,2.79925052 16.7950165,2.79925052 C16.7950165,2.79925052 16.235134,5.0385374 15.1155311,6.15822139 C16.235134,7.27790538 16.7950165,9.51670569 16.7950165,9.51670569 C16.7950165,9.51670569 13.9958471,9.51670569 12.8761631,7.83713916 C11.7564791,9.51670569 10.0769937,10.6363086 6.71802284,10.6363086 C1.11968399,10.6363086 0,6.15822139 0,6.15822139 Z" stroke="#3B3B3A" stroke-width="0.884669562" fill="none" stroke-miterlimit="10"></path></g><g transform="translate(8.592655265637285 7.980385569657782)"><path d="M0,8.39750827 C0,8.39750827 1.67956653,4.47865486 0,0" stroke="#3B3B3A" stroke-width="0.884669562" fill="none" stroke-miterlimit="10"></path></g><g transform="translate(6.312796361648652 10.77958743256734)"><path d="M0.0703953,0.699366605 L0.0703953,0" stroke="#3B3B3A" stroke-width="0.884669562" fill="none" stroke-miterlimit="10"></path></g></svg>